<svg height="464pt" viewBox="0 0 464 464" width="464pt" xmlns="http://www.w3.org/2000/svg"><path d="m200 273.886719v12.546875c1.824219 3.941406 9.71875 17.566406 32 17.566406 22.449219 0 30.265625-13.71875 32-17.542969v-12.570312c-9.9375 3.898437-20.703125 6.113281-32 6.113281s-22.0625-2.214844-32-6.113281zm0 0"/><path d="m111.609375 297.480469v-193.289063c0-35.933594 15.933594-68.160156 41.023437-90.199218-88.953124 32.488281-152.632812 117.953124-152.632812 218.007812 0 65.929688 27.6875 125.480469 72 167.761719v-48.953125c0-24.585938 16.441406-46.160156 39.609375-53.328125zm0 0"/><path d="m336 230.527344c-2.511719.898437-5.183594 1.472656-8 1.472656h-17.710938c-7.023437 13.679688-17.488281 25.289062-30.289062 33.664062v15.871094l56 12zm0 0"/><path d="m127.609375 293.617188 56.390625-12.089844v-15.871094c-24.046875-15.726562-40-42.847656-40-73.664062v-40c0-8.824219 7.175781-16 16-16 11.761719 0 22.320312-6.527344 27.574219-17.039063l7.480469-14.953125h68.945312c30.871094 0 56 25.121094 56 56v32c0 8.328125-1.238281 16.359375-3.40625 24h11.40625c4.414062 0 8-3.59375 8-8v-103.808594c0-57.421875-46.703125-104.1523435-104.128906-104.191406-.085938 0-.175782.0078125-.261719.0078125-57.363281.1054685-104 46.8007815-104 104.1835935zm0 0"/><path d="m291.824219 232h-37.296875c-3.3125 9.289062-12.113282 16-22.527344 16-13.230469 0-24-10.769531-24-24s10.769531-24 24-24c10.414062 0 19.214844 6.710938 22.527344 16h45.273437c2.671875-7.519531 4.199219-15.574219 4.199219-24v-32c0-22.054688-17.945312-40-40-40h-59.054688l-3.058593 6.113281c-7.984375 15.964844-24.039063 25.886719-41.886719 25.886719v40c0 39.695312 32.296875 72 72 72 24.910156 0 46.894531-12.71875 59.824219-32zm-19.824219-72c4.414062 0 8 3.585938 8 8s-3.585938 8-8 8-8-3.585938-8-8 3.585938-8 8-8zm-80 16c-4.414062 0-8-3.585938-8-8s3.585938-8 8-8 8 3.585938 8 8-3.585938 8-8 8zm0 0"/><path d="m240 224c0 4.417969-3.582031 8-8 8s-8-3.582031-8-8 3.582031-8 8-8 8 3.582031 8 8zm0 0"/><path d="m270.296875 373.28125 33.117187-24.832031-6.710937-46.96875-18.238281-3.914063-28.816406 165.699219c3.609374-.273437 7.183593-.625 10.742187-1.066406l26.753906-46.816407zm0 0"/><path d="m464 232c0-100.289062-63.976562-185.902344-153.257812-218.214844 25.226562 22.046875 41.257812 54.359375 41.257812 90.40625v193.167969c23.375 7.039063 40 28.71875 40 53.441406v48.953125c44.3125-42.273437 72-101.824218 72-167.753906zm0 0"/><path d="m174.296875 378.71875-30.882813-23.167969 7.210938-50.503906-31 6.648437c-18.328125 3.929688-31.625 20.367188-31.625 39.113282v62.894531c27.414062 21.777344 59.832031 37.496094 95.246094 45.105469l-24.101563-42.183594zm0 0"/><path d="m344.375 311.695312-31-6.648437 7.210938 50.503906-30.882813 23.167969 15.160156 37.898438-24.101562 42.183593c35.40625-7.601562 67.824219-23.328125 95.238281-45.105469v-62.894531c0-18.738281-13.296875-35.175781-31.625-39.105469zm0 0"/><path d="m167.304688 301.480469-6.710938 46.96875 33.117188 24.832031-16.839844 42.101562 26.753906 46.816407c3.558594.441406 7.136719.785156 10.742188 1.066406l-28.816407-165.699219zm0 0"/><path d="m232 320c-11.648438 0-20.609375-2.753906-27.457031-6.566406l26.183593 150.535156c.425782 0 .847657.03125 1.273438.03125s.847656-.03125 1.273438-.03125l26.183593-150.535156c-6.847656 3.8125-15.808593 6.566406-27.457031 6.566406zm0 0"/></svg>