<?xml version="1.0" encoding="iso-8859-1"?>
<!-- Generator: Adobe Illustrator 19.0.0, SVG Export Plug-In . SVG Version: 6.00 Build 0)  -->
<svg version="1.1" id="Layer_1" xmlns="http://www.w3.org/2000/svg" xmlns:xlink="http://www.w3.org/1999/xlink" x="0px" y="0px"
	 viewBox="0 0 512.001 512.001" style="enable-background:new 0 0 512.001 512.001;" xml:space="preserve">
<g>
	<g>
		<path d="M416.414,221.101h-2.428v4.857h2.428c1.215,0,1.943-0.68,1.943-2.234v-0.389
			C418.357,221.684,417.629,221.101,416.414,221.101z"/>
	</g>
</g>
<g>
	<g>
		<path d="M416.537,214.812h-2.55v3.375h2.55c0.922,0,1.383-0.85,1.383-1.675C417.92,215.663,417.459,214.812,416.537,214.812z"/>
	</g>
</g>
<g>
	<g>
		<path d="M250.222,49.91c-4.713-8.201-15.182-11.029-23.384-6.317c-8.202,4.713-11.03,15.183-6.317,23.384l23.904,41.599
			l6.636-7.685c5.813-6.733,13.747-10.543,21.955-11.315L250.222,49.91z"/>
	</g>
</g>
<g>
	<g>
		<circle cx="396.076" cy="83.132" r="38.464"/>
	</g>
</g>
<g>
	<g>
		<path d="M493.429,0.096c-9.404-0.992-17.839,5.825-18.833,15.232l-8.669,81.971l-42.396,55.115h-68.377l-46.306-24.904
			c-0.902,5.965-3.435,11.755-7.669,16.659l-10.68,12.368l56.219,29.56v122.993l-42.523,175.389
			c-2.898,11.954,4.443,23.993,16.396,26.891c11.954,2.898,23.993-4.444,26.891-16.397c0,0,43.765-181.528,43.766-183.261h9.636
			v178.014c0,12.299,9.972,22.27,22.271,22.27s22.27-9.971,22.27-22.27c0,0-0.147-180.831-0.404-182.182v-126.89l51.004-66.304
			c1.928-2.507,3.124-5.498,3.458-8.641l9.177-86.779C509.657,9.523,502.836,1.091,493.429,0.096z M403.278,183.539
			c0-0.801,0.946-1.166,1.894-1.166c1.36,0,1.87,0.122,2.792,1.894l3.934,7.503v-8.256c0-0.29,0.127-0.517,0.33-0.692
			c0.359-0.309,0.96-0.449,1.565-0.449c0.946,0,1.894,0.34,1.894,1.141v4.057v11.386c0,0.777-0.948,1.165-1.894,1.165
			c-0.874,0-1.651-0.169-2.113-1.02l-4.612-8.401v8.256c0,0.777-0.947,1.165-1.895,1.165c-0.947,0-1.894-0.388-1.894-1.165V183.539z
			 M376.061,226.103c1.942,0,2.064-1.481,2.136-2.428c0.074-0.898,0.898-1.141,1.87-1.141c1.312,0,1.918,0.34,1.918,1.797
			c0,3.23-2.623,5.075-6.095,5.075c-3.181,0-5.829-1.554-5.829-5.731v-6.435c0-4.177,2.647-5.731,5.829-5.731
			c3.472,0,6.095,1.749,6.095,4.832c0,1.457-0.606,1.797-1.894,1.797c-1.02,0-1.846-0.266-1.895-1.141
			c-0.023-0.631-0.097-2.185-2.16-2.185c-1.383,0-2.186,0.777-2.186,2.428v6.435C373.851,225.326,374.652,226.103,376.061,226.103z
			 M379.848,192.692v6.266c0,0.777-0.947,1.165-1.895,1.165c-0.947,0-1.894-0.388-1.894-1.165v-15.418h0.001
			c0-0.777,0.826-1.166,1.651-1.166h8.426c0.801,0,1.141,0.849,1.141,1.626c0,0.898-0.412,1.675-1.141,1.675h-6.289v4.103h3.666
			c0.729,0,1.141,0.704,1.141,1.481c0,0.655-0.341,1.432-1.141,1.432H379.848z M393.227,229.261h-7.673
			c-0.826,0-1.651-0.388-1.651-1.166v-15.444c0-0.801,0.946-1.141,1.894-1.141c0.947,0,1.895,0.34,1.895,1.141v13.307h5.537
			c0.729,0,1.092,0.826,1.092,1.652C394.321,228.435,393.956,229.261,393.227,229.261z M388.491,194.54v-11.025
			c0-0.801,0.923-1.141,1.895-1.141c0.923,0,1.894,0.34,1.894,1.141v11.025c0,1.651,0.874,2.428,2.331,2.428
			c1.457,0,2.331-0.777,2.331-2.428v-11.025c0-0.801,0.923-1.141,1.894-1.141c0.924,0,1.895,0.34,1.895,1.141v11.025
			c0,4.177-2.695,5.731-6.12,5.731C391.163,200.27,388.491,198.717,388.491,194.54z M407.675,223.675
			c0,4.177-2.695,5.731-6.12,5.731c-3.449,0-6.12-1.554-6.12-5.731V212.65c0-0.801,0.923-1.141,1.895-1.141
			c0.923,0,1.894,0.34,1.894,1.141v11.025c0,1.651,0.874,2.428,2.331,2.428c1.457,0,2.331-0.777,2.331-2.428V212.65
			c0-0.801,0.923-1.141,1.894-1.141c0.924,0,1.895,0.34,1.895,1.141V223.675z M422.146,224.04c0,3.837-2.137,5.221-4.881,5.221
			h-5.391c-1.021,0-1.651-0.534-1.651-1.141v-15.444c0-0.777,0.825-1.166,1.651-1.166h4.978c2.428,0,4.857,0.875,4.857,4.322
			c0,1.967-0.777,3.255-2.064,3.812c1.48,0.56,2.501,1.458,2.501,3.886V224.04z"/>
	</g>
</g>
<g>
	<g>
		<path d="M286.94,110c-6.923-5.976-17.373-5.209-23.349,1.71l-37.183,43.063l-40.485-19.224c-5.423-2.575-11.294-4.073-17.286-4.41
			l-85.698-4.823L36.874,96.011l3.851-66.956c0.525-9.127-6.448-16.952-15.576-17.477c-9.135-0.523-16.953,6.447-17.478,15.575
			l-4.4,76.489c-0.34,5.9,2.491,11.532,7.428,14.781l68.68,45.185c0,0-8.342,129.256-8.35,131.71l-0.543,194.549
			c-0.033,12.19,9.82,22.099,22.011,22.134c0.021,0,0.041,0,0.064,0c12.16,0,22.037-9.843,22.07-22.011l0.521-186.697l8.465,0.487
			l35.924,91.765l-10.899,91.779c-1.438,12.105,7.21,23.084,19.315,24.522c12.096,1.437,23.084-7.204,24.521-19.316l11.551-97.274
			c0.428-3.608-0.04-7.265-1.364-10.65l-33.073-84.483c0.942-16.366,6.714-116.73,7.589-131.938l46.487,21.898
			c6.718,3.166,14.727,1.468,19.584-4.157l45.398-52.576C294.626,126.429,293.859,115.976,286.94,110z M107.011,169.172
			c0.047-0.776,0.894-1.115,1.718-1.063l8.411,0.508c0.8,0.048,1.088,0.917,1.041,1.693c-0.055,0.897-0.513,1.649-1.241,1.604
			l-6.277-0.379l-0.247,4.096l3.659,0.221c0.728,0.045,1.098,0.772,1.051,1.547c-0.039,0.654-0.427,1.41-1.226,1.361l-3.658-0.221
			l-0.378,6.253c-0.047,0.776-1.017,1.106-1.962,1.049c-0.946-0.057-1.867-0.503-1.82-1.277L107.011,169.172z M110.948,202.272
			c-0.088,1.455-0.714,1.757-1.999,1.679c-1.018-0.061-1.827-0.377-1.823-1.254c0.015-0.631,0.035-2.187-2.026-2.311
			c-1.382-0.082-2.228,0.644-2.329,2.292l-0.388,6.424c-0.099,1.649,0.653,2.472,2.06,2.557c1.938,0.117,2.15-1.354,2.278-2.295
			c0.128-0.892,0.966-1.085,1.936-1.025c1.31,0.079,1.895,0.455,1.807,1.908c-0.195,3.225-2.924,4.908-6.39,4.698
			c-3.176-0.192-5.724-1.903-5.472-6.072l0.388-6.423c0.252-4.169,2.988-5.561,6.164-5.369
			C108.621,197.291,111.133,199.195,110.948,202.272z M122.58,214.263c-0.05,0.824-0.463,1.626-1.19,1.583l-7.66-0.463
			c-0.825-0.05-1.625-0.488-1.578-1.263l0.932-15.416c0.048-0.8,1.013-1.082,1.96-1.026c0.945,0.057,1.869,0.454,1.821,1.254
			l-0.803,13.284l5.527,0.334C122.317,212.593,122.63,213.439,122.58,214.263z M118.755,180.902l0.665-11.005
			c0.048-0.8,0.991-1.083,1.961-1.024c0.921,0.056,1.869,0.454,1.821,1.254l-0.665,11.005c-0.099,1.648,0.726,2.476,2.18,2.565
			c1.453,0.088,2.374-0.636,2.473-2.284l0.665-11.005c0.049-0.799,0.99-1.083,1.96-1.024c0.922,0.056,1.87,0.454,1.821,1.254
			l-0.664,11.005c-0.252,4.169-3.035,5.558-6.453,5.352C121.077,186.784,118.503,185.071,118.755,180.902z M136.148,211.142
			c-0.252,4.169-3.036,5.558-6.454,5.352c-3.441-0.208-6.015-1.921-5.763-6.089l0.665-11.004c0.049-0.8,0.991-1.083,1.961-1.024
			c0.922,0.056,1.87,0.453,1.821,1.254l-0.664,11.004c-0.099,1.649,0.726,2.477,2.18,2.565s2.374-0.635,2.473-2.283l0.665-11.005
			c0.048-0.8,0.991-1.083,1.96-1.024c0.922,0.056,1.87,0.454,1.822,1.254L136.148,211.142z M137.031,186.434
			c-0.047,0.776-1.017,1.107-1.962,1.049c-0.945-0.058-1.867-0.503-1.82-1.277l0.93-15.392c0.048-0.8,1.015-1.106,1.961-1.049
			c1.358,0.081,1.859,0.234,2.673,2.059l3.474,7.727l0.498-8.241c0.048-0.8,1.014-1.082,1.96-1.026
			c0.945,0.057,1.869,0.454,1.821,1.254l-0.931,15.416c-0.047,0.776-1.015,1.106-1.961,1.049c-0.872-0.052-1.637-0.269-2.048-1.146
			l-4.098-8.664L137.031,186.434z M150.627,204.158c-0.118,1.964-0.972,3.201-2.291,3.681c1.447,0.649,2.411,1.606,2.264,4.031
			l-0.031,0.509c-0.231,3.829-2.448,5.082-5.188,4.917l-5.38-0.326c-1.02-0.061-1.616-0.633-1.579-1.24l0.931-15.416
			c0.047-0.776,0.895-1.115,1.72-1.063l4.968,0.3C148.465,199.698,150.835,200.717,150.627,204.158z"/>
	</g>
</g>
<g>
	<g>
		<circle cx="133.427" cy="76.321" r="38.311"/>
	</g>
</g>
<g>
	<g>
		<path d="M145.026,209.1l-2.423-0.146l-0.293,4.848l2.423,0.147c1.213,0.074,1.981-0.561,2.074-2.112l0.023-0.388
			C146.931,209.799,146.239,209.173,145.026,209.1z"/>
	</g>
</g>
<g>
	<g>
		<path d="M145.526,202.829l-2.545-0.154l-0.204,3.369l2.546,0.154c0.921,0.056,1.431-0.765,1.481-1.588
			C146.856,203.76,146.447,202.883,145.526,202.829z"/>
	</g>
</g>
<g>
</g>
<g>
</g>
<g>
</g>
<g>
</g>
<g>
</g>
<g>
</g>
<g>
</g>
<g>
</g>
<g>
</g>
<g>
</g>
<g>
</g>
<g>
</g>
<g>
</g>
<g>
</g>
<g>
</g>
</svg>
