<?xml version="1.0" encoding="iso-8859-1"?>
<!-- Generator: Adobe Illustrator 19.0.0, SVG Export Plug-In . SVG Version: 6.00 Build 0)  -->
<svg xmlns="http://www.w3.org/2000/svg" xmlns:xlink="http://www.w3.org/1999/xlink" version="1.1" id="Layer_1" x="0px" y="0px" viewBox="0 0 512 512" style="enable-background:new 0 0 512 512;" xml:space="preserve" width="512" height="512">
<g id="XMLID_996_">
	<g id="XMLID_41_">
		<path id="XMLID_4218_" d="M312.887,143.383c1.953,1.953,4.512,2.929,7.071,2.929s5.119-0.976,7.071-2.929    c3.905-3.905,3.905-10.237,0-14.143l-0.135-0.135c-3.905-3.905-10.237-3.905-14.143,0c-3.905,3.905-3.905,10.237,0,14.143    L312.887,143.383z"/>
		<path id="XMLID_4221_" d="M474.216,238l34.855-34.855c2.86-2.86,3.715-7.162,2.167-10.898c-1.548-3.737-5.194-6.173-9.239-6.173    h-72.251c-9.444-38.66-29.265-73.887-57.6-102.223C330.975,42.676,276.23,20,218,20S105.025,42.676,63.851,83.851    C22.676,125.026,0,179.77,0,238s22.676,112.975,63.851,154.149c12.244,12.244,25.695,22.838,40.074,31.7l-30.127,53.225    c-1.752,3.096-1.728,6.89,0.064,9.962C75.653,490.11,78.942,492,82.5,492H134c3.603,0,6.928-1.938,8.703-5.074l21.302-37.635    C181.44,453.714,199.544,456,218,456s36.56-2.286,53.995-6.709l21.302,37.635c1.775,3.136,5.1,5.074,8.703,5.074h51.5    c3.558,0,6.847-1.89,8.639-4.963c1.792-3.073,1.816-6.867,0.064-9.962l-30.127-53.225c14.379-8.863,27.83-19.456,40.074-31.7    c28.324-28.324,48.155-63.566,57.598-102.223H502c4.044,0,7.691-2.437,9.239-6.173c1.548-3.736,0.692-8.038-2.167-10.898    L474.216,238z M455.931,228h-69.789l21.926-21.926h69.79L455.931,228z M128.169,472H99.651l21.766-38.453    c7.47,3.698,15.139,6.969,22.985,9.775L128.169,472z M336.349,472h-28.518l-16.233-28.678c7.846-2.806,15.515-6.077,22.985-9.775    L336.349,472z M358.007,378.007c-13.21,13.21-27.964,24.312-43.846,33.162c-0.196,0.095-0.394,0.185-0.587,0.294    c-0.121,0.069-0.231,0.148-0.348,0.221c-12.183,6.702-25.021,12.083-38.342,16.057c-0.524,0.104-1.042,0.258-1.553,0.45    C255.577,433.329,236.995,436,218,436c-18.995,0-37.577-2.671-55.331-7.808c-0.512-0.192-1.03-0.346-1.555-0.45    c-13.32-3.974-26.158-9.355-38.34-16.057c-0.117-0.073-0.227-0.152-0.348-0.221c-0.193-0.109-0.39-0.199-0.586-0.294    c-15.882-8.85-30.636-19.952-43.846-33.163C40.596,340.61,20,290.888,20,238S40.596,135.39,77.993,97.993    C115.39,60.596,165.112,40,218,40s102.61,20.596,140.007,57.993c24.573,24.573,42.099,54.844,51.098,88.081h-5.178    c-2.652,0-5.196,1.054-7.071,2.929l-26.541,26.541c-2.678-18.181-8.556-35.859-17.432-51.936    c-2.669-4.835-8.753-6.589-13.588-3.921c-4.835,2.669-6.59,8.753-3.921,13.588c9.493,17.194,14.796,35.888,16.153,54.726h-44.092    c-2.226-20.256-11.177-39.021-25.795-53.639C264.641,157.362,242.04,148,218,148s-46.641,9.362-63.639,26.36    C137.362,191.36,128,213.96,128,238s9.362,46.641,26.36,63.639C171.359,318.638,193.96,328,218,328s46.641-9.362,63.639-26.36    c14.618-14.618,23.569-33.383,25.795-53.64h44.049c-2.385,31.26-15.576,61.596-38.731,84.752C287.443,358.062,253.792,372,218,372    s-69.443-13.938-94.752-39.248C97.938,307.443,84,273.793,84,238s13.938-69.443,39.248-94.752    c41.982-41.982,107.562-51.284,159.478-22.621c4.834,2.668,10.918,0.914,13.588-3.921c2.669-4.835,0.914-10.918-3.921-13.588    C263.748,87.303,230.019,81,197.422,85.374c-33.685,4.518-64.225,19.64-88.316,43.732C80.019,158.193,64,196.865,64,238    s16.019,79.808,45.105,108.894C138.192,375.981,176.865,392,218,392s79.808-16.019,108.894-45.105    c23.635-23.634,38.629-53.475,43.456-86.402l26.505,26.505c1.875,1.875,4.419,2.929,7.071,2.929h5.176    C400.103,323.162,382.57,353.444,358.007,378.007z M250.66,219.144c-2.761-4.784-8.877-6.422-13.66-3.66l-24,13.856    c-3.094,1.786-5,5.087-5,8.66s1.906,6.874,5,8.66l24,13.856c1.575,0.909,3.294,1.341,4.991,1.341c3.456,0,6.817-1.793,8.669-5.001    c1.623-2.81,1.716-6.077,0.555-8.856h36.072c-2.119,14.903-8.956,28.664-19.79,39.497l0,0C254.276,300.719,236.698,308,218,308    s-36.276-7.281-49.498-20.503C155.281,274.276,148,256.698,148,238s7.281-36.276,20.503-49.498    C181.724,175.281,199.302,168,218,168s36.276,7.281,49.498,20.503c10.833,10.833,17.671,24.594,19.79,39.497h-36.072    C252.376,225.22,252.283,221.954,250.66,219.144z M408.068,269.926L386.142,248h69.789l21.927,21.926H408.068z"/>
	</g>
</g>















</svg>
