<svg id="_x33_0" enable-background="new 0 0 64 64" height="512" viewBox="0 0 64 64" width="512" xmlns="http://www.w3.org/2000/svg"><g><g><path d="m36 28v2h-8v-2c0-1.1.9-2 2-2h2 2c1.1 0 2 .9 2 2z" fill="#aab2bd"/><g fill="#fcd770"><path d="m33.41 10.59c.37.36.59.86.59 1.41v5c0 .55-.45 1-1 1h-1-1c-.55 0-1-.45-1-1v-5c0-1.1.9-2 2-2 .55 0 1.05.22 1.41.59z"/><path d="m43.41 7.59c.37.36.59.86.59 1.41v5c0 .55-.45 1-1 1h-1-1c-.55 0-1-.45-1-1v-5c0-1.1.9-2 2-2 .55 0 1.05.22 1.41.59z"/><path d="m20 9c0-1.1.9-2 2-2 .55 0 1.05.22 1.41.59.37.36.59.86.59 1.41v5c0 .55-.45 1-1 1h-1-1c-.55 0-1-.45-1-1z"/></g><path d="m42 7c-1.1 0-2-.9-2-2s1-3 2-3 2 1.9 2 3-.9 2-2 2z" fill="#ffc729"/><path d="m22 7c-1.1 0-2-.9-2-2s1-3 2-3 2 1.9 2 3-.9 2-2 2z" fill="#ffc729"/><path d="m34 8c0 1.1-.9 2-2 2s-2-.9-2-2 1-3 2-3 2 1.9 2 3z" fill="#ffc729"/><path d="m21.41 42.59c.37.36.59.86.59 1.41 0 1.1-.9 2-2 2h-10c-.55 0-1.05-.22-1.41-.59-.37-.36-.59-.86-.59-1.41 0-1.1.9-2 2-2h10c.55 0 1.05.22 1.41.59z" fill="#b27946"/><path d="m54 42c1.1 0 2 .9 2 2 0 .55-.22 1.05-.59 1.41-.36.37-.86.59-1.41.59h-10c-1.1 0-2-.9-2-2 0-.55.22-1.05.59-1.41.36-.37.86-.59 1.41-.59z" fill="#b27946"/><path d="m38 35c0 1.66-1.34 3-3 3s-3-1.34-3-3c0 1.66-1.34 3-3 3s-3-1.34-3-3c0 1.66-1.34 3-3 3s-3-1.34-3-3c0 1.71-1.43 3.09-3.16 3-1.62-.09-2.84-1.55-2.84-3.17v-3.83c0-.55.45-1 1-1h13 8 13c.55 0 1 .45 1 1v3.83c0 1.62-1.22 3.08-2.84 3.17-1.73.09-3.16-1.29-3.16-3 0 1.66-1.34 3-3 3s-3-1.34-3-3z" fill="#f29ed0"/></g><g><path d="m38 57h-1v2h1c.551 0 1 .448 1 1s-.449 1-1 1c-1.654 0-3-1.346-3-3v-19c1.2 0 2.266-.542 3-1.382.734.84 1.8 1.382 3 1.382 1.201 0 2.268-.543 3.002-1.384.082.095.153.198.245.285.804.763 1.851 1.143 2.967 1.094 2.123-.111 3.786-1.94 3.786-4.165v-3.83c0-1.103-.897-2-2-2h-12v-1c0-1.654-1.346-3-3-3h-1v-2h2c4.072 0 7.436-3.06 7.931-7h.069c1.103 0 2-.897 2-2v-5c0-.771-.301-1.468-.78-2 .479-.532.78-1.229.78-2 0-1.373-1.168-4-3-4s-3 2.627-3 4c0 .771.301 1.468.78 2-.479.532-.78 1.229-.78 2v5c0 1.072.85 1.943 1.911 1.991-.475 2.838-2.941 5.009-5.911 5.009h-2v-2c1.103 0 2-.897 2-2v-5c0-.771-.301-1.468-.78-2 .479-.532.78-1.229.78-2 0-1.373-1.168-4-3-4s-3 2.627-3 4c0 .771.301 1.468.78 2-.48.532-.78 1.229-.78 2v5c0 1.103.897 2 2 2v2h-2c-2.97 0-5.436-2.171-5.911-5.009 1.061-.048 1.911-.919 1.911-1.991v-5c0-.771-.301-1.468-.78-2 .479-.532.78-1.229.78-2 0-1.373-1.168-4-3-4s-3 2.627-3 4c0 .771.301 1.468.78 2-.479.532-.78 1.229-.78 2v5c0 1.103.897 2 2 2h.069c.495 3.94 3.859 7 7.931 7h2v2h-1c-1.654 0-3 1.346-3 3v1h-12c-1.103 0-2 .897-2 2v3.83c0 2.225 1.663 4.054 3.787 4.165.072.003.144.005.215.005 1.03 0 2-.386 2.751-1.099.092-.087.162-.191.245-.285.734.841 1.801 1.384 3.002 1.384 1.2 0 2.266-.542 3-1.382.734.84 1.8 1.382 3 1.382v19c0 1.654-1.346 3-3 3-.551 0-1-.448-1-1s.449-1 1-1h1v-2h-1c-1.654 0-3 1.346-3 3s1.346 3 3 3c2.757 0 5-2.243 5-5v-19.556c.378-.221.714-.498 1-.826.286.328.622.605 1 .826v19.556c0 2.757 2.243 5 5 5 1.654 0 3-1.346 3-3s-1.346-3-3-3zm3-43v-5c0-.552.449-1 1-1s1 .448 1 1l.001 5zm.962-11.004c.335.103 1.038 1.263 1.038 2.004 0 .552-.449 1-1 1s-1-.448-1-1c0-.741.703-1.901.962-2.004zm-10.962 14.004v-5c0-.552.449-1 1-1s1 .448 1 1l.001 5zm.962-11.004c.335.103 1.038 1.263 1.038 2.004 0 .552-.449 1-1 1s-1-.448-1-1c0-.741.703-1.901.962-2.004zm-10.962 3.004c0-.552.449-1 1-1s1 .448 1 1l.001 5h-2.001zm.962-6.004c.335.103 1.038 1.263 1.038 2.004 0 .552-.449 1-1 1s-1-.448-1-1c0-.741.703-1.901.962-2.004zm7.038 25.004c0-.552.449-1 1-1h4c.551 0 1 .448 1 1v1h-6zm2 7c0 1.103-.897 2-2 2s-2-.897-2-2h-2c0 1.103-.897 2-2 2s-2-.897-2-2h-2c0 .554-.221 1.069-.624 1.45-.402.383-.937.58-1.485.547-1.043-.055-1.891-1.026-1.891-2.167v-3.83h34v3.83c0 1.141-.848 2.112-1.891 2.167-.549.031-1.084-.164-1.486-.547-.402-.381-.623-.896-.623-1.45h-2c0 1.103-.897 2-2 2s-2-.897-2-2h-2c0 1.103-.897 2-2 2s-2-.897-2-2z"/><path d="m58 21c-2.757 0-5 2.243-5 5v15h-9c-1.654 0-3 1.346-3 3 0 1.302.839 2.402 2 2.816v16.184h2v-10h8v10h2v-16.184c1.161-.414 2-1.514 2-2.816s-.839-2.402-2-2.816v-15.184c0-1.654 1.346-3 3-3s3 1.346 3 3c0 .552-.449 1-1 1s-1-.448-1-1v-1h-2v1c0 1.654 1.346 3 3 3s3-1.346 3-3c0-2.757-2.243-5-5-5zm-13 30v-4h8v4zm9-6h-10c-.551 0-1-.448-1-1s.449-1 1-1h10c.551 0 1 .448 1 1s-.449 1-1 1z"/><path d="m23 44c0-1.654-1.346-3-3-3h-9v-15c0-2.757-2.243-5-5-5s-5 2.243-5 5c0 1.654 1.346 3 3 3s3-1.346 3-3v-1h-2v1c0 .552-.449 1-1 1s-1-.448-1-1c0-1.654 1.346-3 3-3s3 1.346 3 3v15.184c-1.161.414-2 1.514-2 2.816s.839 2.402 2 2.816v16.184h2v-10h8v10h2v-16.184c1.161-.414 2-1.514 2-2.816zm-12 7v-4h8v4zm9-6h-10c-.551 0-1-.448-1-1s.449-1 1-1h10c.551 0 1 .448 1 1s-.449 1-1 1z"/></g></g><script xmlns=""/></svg>