<svg height="512pt" viewBox="0 -32 512 512" width="512pt" xmlns="http://www.w3.org/2000/svg"><path d="m31.117188 359.042969h449.765624c11.664063 0 21.117188-9.449219 21.117188-21.105469v-306.835938c0-11.652343-9.453125-21.101562-21.117188-21.101562h-449.765624c-11.664063 0-21.117188 9.449219-21.117188 21.101562v306.835938c0 11.65625 9.453125 21.105469 21.117188 21.105469zm0 0" fill="#4e7ba6"/><path d="m400.964844 51.84375h59.164062v265.355469h-408.257812v-265.355469h240.65625" fill="#82dfed"/><path d="m342.851562 61.84375c-2.640624 0-5.210937-1.070312-7.070312-2.933594-.460938-.457031-.882812-.96875-1.25-1.519531-.359375-.539063-.671875-1.117187-.921875-1.71875-.25-.609375-.4375-1.238281-.570313-1.871094-.128906-.648437-.1875-1.308593-.1875-1.957031 0-.652344.058594-1.3125.1875-1.953125.132813-.636719.320313-1.269531.570313-1.867187.25-.613282.5625-1.191407.921875-1.730469.367188-.550781.789062-1.0625 1.25-1.519531.460938-.460938.96875-.882813 1.519531-1.242188.539063-.359375 1.121094-.667969 1.71875-.917969.613281-.25 1.242188-.441406 1.882813-.570312 1.289062-.261719 2.609375-.261719 3.898437 0 .640625.128906 1.269531.320312 1.871094.570312.609375.25 1.1875.558594 1.730469.917969.550781.359375 1.058594.78125 1.519531 1.242188.460937.457031.878906.96875 1.238281 1.519531.359375.539062.671875 1.117187.921875 1.730469.25.597656.4375 1.230468.566407 1.867187.132812.640625.203124 1.300781.203124 1.953125 0 .648438-.070312 1.308594-.203124 1.957031-.128907.632813-.316407 1.261719-.566407 1.871094-.25.601563-.5625 1.179687-.921875 1.71875-.359375.550781-.777344 1.0625-1.238281 1.519531-.460937.460938-.972656.882813-1.519531 1.25-.542969.363282-1.121094.671875-1.730469.921875-.601563.25-1.230469.441407-1.871094.570313s-1.300781.191406-1.949219.191406zm0 0"/><path d="m207.007812 359.042969h97.984376v45.128906h-97.984376zm0 0" fill="#82dfed"/><path d="m142 404.171875h228v33.914063h-228zm0 0" fill="#f4f4f4"/><path d="m256 285.878906c-54.734375 0-99.265625-44.527344-99.265625-99.261718 0-32.417969 15.933594-62.867188 42.621094-81.457032l3.847656-2.683594 27.234375 27.230469-6.179688 3.6875c-18.96875 11.335938-30.292968 31.230469-30.292968 53.222657 0 34.203124 27.832031 62.035156 62.035156 62.035156 34.207031 0 62.035156-27.832032 62.035156-62.035156 0-21.992188-11.324218-41.886719-30.292968-53.222657l-6.175782-3.6875 27.230469-27.230469 3.851563 2.683594c26.683593 18.589844 42.617187 49.039063 42.617187 81.457032 0 54.730468-44.53125 99.261718-99.265625 99.261718zm0 0" fill="#ffd97d"/><path d="m236.382812 89.953125h39.234376v99.667969h-39.234376zm0 0" fill="#ffd97d"/><path d="m480.882812 0h-449.765624c-17.15625 0-31.117188 13.953125-31.117188 31.101562v306.835938c0 17.152344 13.960938 31.105469 31.117188 31.105469h165.890624v25.128906h-55.007812c-5.523438 0-10 4.476563-10 10v33.914063c0 5.519531 4.476562 10 10 10h228c5.523438 0 10-4.480469 10-10v-33.914063c0-5.523437-4.476562-10-10-10h-55.007812v-25.128906h165.890624c17.15625 0 31.117188-13.953125 31.117188-31.105469v-306.835938c0-17.148437-13.960938-31.101562-31.117188-31.101562zm-120.882812 428.085938h-208v-13.914063h208zm-65.007812-33.914063h-77.984376v-25.128906h77.984376zm197.007812-56.234375c0 6.125-4.988281 11.105469-11.117188 11.105469h-449.765624c-6.128907 0-11.117188-4.980469-11.117188-11.105469v-306.835938c0-6.121093 4.988281-11.101562 11.117188-11.101562h449.765624c6.128907 0 11.117188 4.980469 11.117188 11.101562zm0 0"/><path d="m460.128906 41.84375h-59.164062c-5.519532 0-10 4.476562-10 10s4.480468 10 10 10h49.164062v245.355469h-388.257812v-245.355469h230.65625c5.523437 0 10-4.476562 10-10s-4.476563-10-10-10h-240.65625c-5.519532 0-10 4.476562-10 10v265.355469c0 5.523437 4.480468 10 10 10h408.257812c5.519532 0 10-4.476563 10-10v-265.355469c0-5.523438-4.480468-10-10-10zm0 0"/><path d="m285.617188 111.511719v-21.558594c0-5.523437-4.476563-10-10-10h-39.230469c-5.523438 0-10 4.476563-10 10v21.5625l-16.109375-16.109375c-3.425782-3.425781-8.816406-3.902344-12.789063-1.132812l-3.847656 2.679687c-29.371094 20.460937-46.90625 53.980469-46.90625 89.664063 0 60.246093 49.019531 109.261718 109.269531 109.261718 60.246094 0 109.261719-49.015625 109.261719-109.261718 0-35.683594-17.53125-69.203126-46.902344-89.664063l-3.847656-2.679687c-3.976563-2.769532-9.363281-2.292969-12.789063 1.132812zm-39.230469-11.558594h19.230469v79.667969h-19.230469zm-20 43.960937v45.707032c0 5.523437 4.476562 10 10 10h39.230469c5.523437 0 10-4.476563 10-10v-45.707032c14.105468 9.742188 22.417968 25.457032 22.417968 42.703126 0 28.691406-23.34375 52.035156-52.035156 52.035156s-52.03125-23.34375-52.03125-52.035156c0-17.246094 8.3125-32.960938 22.417969-42.703126zm83.507812-28.394531c22.214844 16.863281 35.371094 43.171875 35.371094 71.097657 0 49.21875-40.042969 89.261718-89.265625 89.261718s-89.265625-40.042968-89.265625-89.261718c0-27.925782 13.15625-54.234376 35.371094-71.097657l12.335937 12.335938c-19.183594 13.507812-30.476562 35.085937-30.476562 58.761719 0 39.71875 32.316406 72.035156 72.035156 72.035156 39.722656 0 72.035156-32.316406 72.035156-72.035156 0-23.675782-11.292968-45.253907-30.476562-58.761719zm0 0"/></svg>