<svg height="512pt" viewBox="0 0 512 512" width="512pt" xmlns="http://www.w3.org/2000/svg"><path d="m292.480469 512h-72.960938l-29.359375-62-24.769531-10.273438-64.605469 23.089844-51.601562-51.601562 23.089844-64.605469-10.273438-24.769531-62-29.359375v-72.960938l62-29.359375 10.273438-24.769531-23.089844-64.605469 51.601562-51.601562 64.640625 23.105468 24.71875-10.242187 29.375-62.046875h72.960938l29.375 62.046875 24.71875 10.242187 64.640625-23.105468 51.601562 51.601562-23.089844 64.605469 10.273438 24.769531 62 29.359375v72.960938l-62 29.359375-10.273438 24.769531 23.089844 64.605469-51.601562 51.601562-64.605469-23.089844-24.769531 10.273438zm0 0" fill="#ffcb5a"/><path d="m320 352h-128v-112h-66.785156l130.785156-152.574219 130.785156 152.574219h-66.785156zm0 0" fill="#fff"/><g fill="#fba61f"><path d="m288 384h32v32h-32zm0 0"/><path d="m192 384h32v32h-32zm0 0"/></g><script xmlns=""/></svg>