<?xml version="1.0" encoding="windows-1252"?>
<!-- Generator: Adobe Illustrator 19.0.0, SVG Export Plug-In . SVG Version: 6.00 Build 0)  -->
<svg version="1.1" id="Capa_1" xmlns="http://www.w3.org/2000/svg" xmlns:xlink="http://www.w3.org/1999/xlink" x="0px" y="0px" viewBox="0 0 512 512" style="enable-background:new 0 0 512 512;" xml:space="preserve">
<g>
	<path style="fill:#FFDA44;" d="M469.333,145.067H42.667c-18.85,0-34.133,15.283-34.133,34.133v256   c0,18.85,15.283,34.133,34.133,34.133h426.667c18.85,0,34.133-15.283,34.133-34.133v-256   C503.467,160.35,488.184,145.067,469.333,145.067z M341.333,418.133H170.667V332.8H204.8v85.333h34.133v-153.6h34.133v153.6H307.2   V196.267h34.133V418.133L341.333,418.133z"/>
	<rect x="307.2" y="196.267" style="fill:#FFDA44;" width="34.133" height="221.867"/>
</g>
<path style="fill:#FFCE00;" d="M469.333,93.867H274.261c-11.418,0.009-22.084-5.692-28.416-15.189l-13.824-20.821  c-6.332-9.498-16.998-15.198-28.416-15.189H42.667c-18.85,0-34.133,15.283-34.133,34.133v102.4c0-18.85,15.283-34.133,34.133-34.133  h426.667c18.85,0,34.133,15.283,34.133,34.133V128C503.467,109.15,488.184,93.867,469.333,93.867z"/>
<g>
	<rect x="238.933" y="264.533" style="fill:#FFDA44;" width="34.133" height="153.6"/>
	<rect x="170.667" y="332.8" style="fill:#FFDA44;" width="34.133" height="85.333"/>
</g>
<g>
	<path style="fill:#231F20;" d="M469.333,85.333H274.261c-8.567,0.017-16.572-4.25-21.333-11.375L239.121,53.12   c-7.91-11.878-21.248-19.004-35.516-18.987H42.667C19.115,34.159,0.026,53.248,0,76.8v358.4   c0.026,23.552,19.115,42.641,42.667,42.667h426.667c23.552-0.026,42.641-19.115,42.667-42.667V128   C511.974,104.448,492.885,85.359,469.333,85.333z M17.067,76.8c0-14.14,11.46-25.6,25.6-25.6h160.939   c8.567-0.017,16.572,4.25,21.333,11.375l13.833,20.83c7.902,11.878,21.222,19.012,35.49,18.995h195.072   c14.14,0,25.6,11.46,25.6,25.6v17.067c-0.324-0.239-0.708-0.418-1.041-0.657c-0.708-0.503-1.451-0.939-2.193-1.399   c-1.434-0.896-2.918-1.698-4.454-2.415c-0.853-0.393-1.664-0.759-2.56-1.092c-1.655-0.631-3.354-1.161-5.077-1.587   c-0.802-0.196-1.579-0.444-2.398-0.597c-2.594-0.503-5.231-0.768-7.876-0.785H42.667c-2.654,0.017-5.308,0.29-7.91,0.802   c-0.853,0.154-1.596,0.401-2.398,0.597c-1.724,0.427-3.422,0.956-5.077,1.587c-0.853,0.333-1.707,0.7-2.56,1.092   c-1.536,0.717-3.021,1.519-4.454,2.415c-0.742,0.461-1.485,0.896-2.193,1.399c-0.333,0.239-0.717,0.418-1.041,0.657L17.067,76.8z    M494.933,435.2c0,14.14-11.46,25.6-25.6,25.6H42.667c-14.14,0-25.6-11.46-25.6-25.6v-256c0-14.14,11.46-25.6,25.6-25.6h426.667   c14.14,0,25.6,11.46,25.6,25.6V435.2z"/>
	<path style="fill:#231F20;" d="M366.933,409.6h-17.067V196.267c0-4.71-3.823-8.533-8.533-8.533H307.2   c-4.71,0-8.533,3.823-8.533,8.533V409.6H281.6V264.533c0-4.71-3.823-8.533-8.533-8.533h-34.133c-4.71,0-8.533,3.823-8.533,8.533   V409.6h-17.067v-76.8c0-4.71-3.823-8.533-8.533-8.533h-34.133c-4.71,0-8.533,3.823-8.533,8.533v76.8h-17.067   c-4.71,0-8.533,3.823-8.533,8.533s3.823,8.533,8.533,8.533h221.867c4.71,0,8.533-3.823,8.533-8.533S371.644,409.6,366.933,409.6z    M315.733,204.8H332.8v204.8h-17.067V204.8z M179.2,409.6v-68.267h17.067V409.6H179.2z M247.467,409.6V273.067h17.067V409.6   H247.467z"/>
</g>
<g>
</g>
<g>
</g>
<g>
</g>
<g>
</g>
<g>
</g>
<g>
</g>
<g>
</g>
<g>
</g>
<g>
</g>
<g>
</g>
<g>
</g>
<g>
</g>
<g>
</g>
<g>
</g>
<g>
</g>
<script xmlns=""/></svg>