<?xml version="1.0" encoding="iso-8859-1"?>
<!-- Generator: Adobe Illustrator 19.0.0, SVG Export Plug-In . SVG Version: 6.00 Build 0)  -->
<svg xmlns="http://www.w3.org/2000/svg" xmlns:xlink="http://www.w3.org/1999/xlink" version="1.1" id="Layer_1" x="0px" y="0px" viewBox="0 0 499.085 499.085" style="enable-background:new 0 0 499.085 499.085;" xml:space="preserve" width="512" height="512">
<g>
	<path style="fill:#AD7136;" d="M260.051,130.223l-25.758,50.935l2.179-51.801c2.084-36.602-10.163-75.874-27.077-110.885L249.08,0   C265.876,41.739,269.533,86.963,260.051,130.223z"/>
	<path style="fill:#FF3B6A;" d="M425.792,319.725c2.06,5.67,3.18,11.79,3.18,18.18c0,28.4-22.25,51.59-50.27,53.11   c1.33,4.66,2.06,9.57,2.06,14.65c0,29.38-23.82,53.2-53.2,53.2c-6.02,0-11.8-1.01-17.19-2.86c-8.83,25.09-32.72,43.08-60.83,43.08   c-28.1,0-51.99-17.99-60.82-43.08c-5.39,1.85-11.17,2.86-17.19,2.86c-29.38,0-53.2-23.82-53.2-53.2c0-5.08,0.73-9.99,2.06-14.65   c-28.02-1.52-50.28-24.71-50.28-53.11c0-6.39,1.13-12.51,3.19-18.18c-10.66-11.5-17.18-26.89-17.18-43.81   c0-23.27,12.33-43.65,30.81-54.99c-0.74-3.17-1.14-6.47-1.14-9.86c0-23.43,18.48-42.53,41.65-43.54c0.98-1.95,2.06-3.84,3.22-5.67   c11.45-17.97,31.53-29.89,54.41-29.89c10.16,0,19.76,2.35,28.31,6.54c10.32-7,22.76-11.09,36.16-11.09   c13.41,0,25.85,4.09,36.17,11.09c8.54-4.19,18.15-6.54,28.31-6.54c20.42,0,38.61,9.5,50.43,24.32c2.76,3.47,5.18,7.24,7.19,11.24   c23.18,1.01,41.66,20.11,41.66,43.54c0,3.39-0.4,6.69-1.14,9.86c18.48,11.34,30.81,31.72,30.81,54.99   C442.972,292.835,436.452,308.225,425.792,319.725z"/>
	<path style="fill:#E21E56;" d="M314.022,131.965c-10.16,0-19.77,2.35-28.31,6.54c-10.32-7-22.76-11.09-36.17-11.09   c-5.709,0-11.241,0.749-16.511,2.142c0.01-0.007,0.021-0.015,0.031-0.022c-0.134,0.035-0.264,0.078-0.398,0.114   c-0.172,0.047-0.341,0.099-0.512,0.147c-1.947,0.545-3.855,1.179-5.723,1.897c-0.244,0.094-0.491,0.184-0.734,0.281   c-0.495,0.197-0.985,0.406-1.474,0.615c-0.287,0.123-0.575,0.244-0.86,0.371c-0.465,0.208-0.927,0.422-1.386,0.64   c-0.305,0.144-0.608,0.291-0.91,0.44c-0.439,0.217-0.876,0.437-1.309,0.663c-0.323,0.168-0.642,0.342-0.961,0.515   c-0.407,0.221-0.814,0.443-1.215,0.672c-0.367,0.21-0.728,0.428-1.09,0.645c-0.346,0.207-0.694,0.409-1.035,0.623   c-0.699,0.437-1.391,0.884-2.073,1.346c-8.55-4.19-18.15-6.54-28.31-6.54c-0.001,0-0.002,0-0.004,0c-0.002,0-0.004,0-0.006,0   c-25.21,0-47.02,14.47-57.62,35.56c-23.18,1.01-41.66,20.11-41.66,43.54c0,3.39,0.41,6.69,1.14,9.86   c-18.48,11.34-30.81,31.72-30.81,54.99c0,16.92,6.53,32.31,17.19,43.81c-2.07,5.67-3.19,11.79-3.19,18.18   c0,28.4,22.25,51.59,50.27,53.11c-1.33,4.66-2.06,9.57-2.06,14.65c0,29.38,23.82,53.2,53.2,53.2c6.02,0,11.8-1.01,17.19-2.86   c8.72,24.78,32.14,42.64,59.81,43.07c-21.34-0.54-38.47-18.01-38.47-39.48c0-5.52,1.13-10.77,3.17-15.54   c-14.14-4.57-24.37-17.83-24.37-33.49c0-7.87,2.58-15.12,6.94-20.98c-23.28-5.67-40.56-26.65-40.56-51.68   c0-6.39,1.13-12.51,3.19-18.18c-10.66-11.5-17.18-26.89-17.18-43.81c0-12.28,3.434-23.755,9.393-33.521   c7.862-12.884,25.394-15.679,36.934-5.952l0,0c0,0,19.523-55.238,53.413-40.897c0,0,21.011-38.447,57.71-2.61   c22.351,21.826,53.05-16.94,53.05-16.94l12.71-19.71C352.633,141.465,334.443,131.965,314.022,131.965z"/>
	<path style="fill:#58B741;" d="M249.547,127.412c-24.469-29.366-64.163-44.244-103.965-35.098   c-39.801,9.146-69.019,39.86-78.214,76.962c24.469,29.366,64.163,44.244,103.965,35.098   C211.134,195.227,240.352,164.514,249.547,127.412z"/>
	<path style="fill:#70D65B;" d="M249.547,127.412c24.469-29.366,64.163-44.244,103.965-35.098   c39.801,9.146,69.019,39.86,78.214,76.962c-24.469,29.366-64.163,44.244-103.965,35.098   C287.96,195.227,258.743,164.514,249.547,127.412z"/>
	<path style="fill:#4AA032;" d="M377.803,162.646c-1.214,0-2.444-0.295-3.585-0.917c-68.488-37.357-122.658-27.072-123.195-26.963   c-4.06,0.817-8.015-1.815-8.83-5.876s1.816-8.014,5.877-8.83c2.419-0.486,60.105-11.439,133.332,28.5   c3.636,1.984,4.976,6.54,2.992,10.176C383.033,161.231,380.46,162.645,377.803,162.646z"/>
	<path style="fill:#4AA032;" d="M325.686,167.859c-2.952,0-5.75-1.753-6.94-4.653l-11.66-28.396c-1.39-3.382-0.137-7.273,2.964-9.21   l23.389-14.609c3.515-2.193,8.14-1.125,10.335,2.388c2.194,3.513,1.125,8.14-2.388,10.334l-18.02,11.255l9.255,22.539   c1.574,3.832-0.257,8.213-4.089,9.787C327.6,167.678,326.636,167.859,325.686,167.859z"/>
	<path style="fill:#4AA032;" d="M121.291,162.646c-2.656,0-5.229-1.414-6.591-3.91c-1.983-3.636-0.644-8.192,2.992-10.175   c73.228-39.942,130.91-28.988,133.331-28.501c4.061,0.815,6.692,4.769,5.877,8.83c-0.815,4.056-4.756,6.687-8.813,5.88l0,0   c-0.136-0.026-13.845-2.64-35.8-0.62c-20.226,1.863-51.808,8.16-87.411,27.58C123.735,162.35,122.504,162.646,121.291,162.646z"/>
	<path style="fill:#4AA032;" d="M173.408,167.859c-0.949,0-1.913-0.181-2.846-0.564c-3.832-1.574-5.663-5.955-4.089-9.787   l9.255-22.539l-18.02-11.255c-3.513-2.195-4.582-6.821-2.388-10.334c2.195-3.514,6.821-4.581,10.335-2.388l23.389,14.609   c3.101,1.937,4.354,5.828,2.964,9.21l-11.66,28.396C179.158,166.105,176.359,167.859,173.408,167.859z"/>
</g>















</svg>
