<?xml version="1.0" encoding="windows-1252"?>
<!-- Generator: Adobe Illustrator 19.0.0, SVG Export Plug-In . SVG Version: 6.00 Build 0)  -->
<svg version="1.1" id="Layer_1" xmlns="http://www.w3.org/2000/svg" xmlns:xlink="http://www.w3.org/1999/xlink" x="0px" y="0px" viewBox="0 0 512 512" style="enable-background:new 0 0 512 512;" xml:space="preserve">
<path style="fill:#66BF00;" d="M341.511,503.983H167.111c-17.519,0-32.206-13.236-34.021-30.661L93.528,93.528h290.739  L341.511,503.983z"/>
<path style="fill:#58AB23;" d="M384.267,93.528H93.528l6.235,59.858l33.327,319.936c1.815,17.424,16.502,30.661,34.021,30.661  h25.653c-17.519,0-32.206-13.236-34.021-30.661l-32.344-310.5c-0.526-5.046,3.432-9.437,8.505-9.437h243.127L384.267,93.528z"/>
<path style="fill:#66BF00;" d="M401.37,127.733H76.426c-9.446,0-17.102-7.656-17.102-17.102V59.324h359.148v51.307  C418.472,120.076,410.815,127.733,401.37,127.733z"/>
<rect x="59.324" y="59.324" style="fill:#58AB23;" width="359.148" height="17.102"/>
<path style="fill:#66BF00;" d="M418.472,59.324H59.324V42.221c0-18.891,15.314-34.205,34.205-34.205h290.739  c18.891,0,34.205,15.314,34.205,34.205V59.324z"/>
<path style="fill:#B6E462;" d="M384.267,8.017H93.528c-12.805,0-23.959,7.041-29.822,17.458h350.383  C408.227,15.058,397.073,8.017,384.267,8.017z"/>
<circle style="fill:#FFC552;" cx="341.511" cy="461.228" r="42.756"/>
<circle style="fill:#988F52;" cx="341.511" cy="461.228" r="17.102"/>
<path d="M444.125,34.205h-18.41C421.959,14.745,404.807,0,384.267,0H93.528c-23.28,0-42.221,18.941-42.221,42.221v68.409  c0,13.851,11.268,25.119,25.119,25.119h13.44l35.25,338.404C127.364,495.729,145.418,512,167.111,512h174.401  c27.995,0,50.772-22.777,50.772-50.772c0-21.857-13.883-40.53-33.293-47.671l3.966-38.069c0.459-4.404-2.74-8.345-7.143-8.803  c-4.405-0.462-8.346,2.74-8.804,7.143l-3.82,36.671c-0.558-0.018-1.115-0.043-1.678-0.043c-27.995,0-50.772,22.777-50.772,50.772  c0,13.43,5.251,25.649,13.795,34.739H167.111c-13.455,0-24.653-10.091-26.047-23.474l-35.078-336.744h265.822l-21.455,205.97  c-0.459,4.404,2.74,8.345,7.143,8.803c0.283,0.03,0.562,0.044,0.84,0.044c4.054,0,7.535-3.066,7.964-7.187l21.628-207.63h13.44  c13.851,0,25.119-11.268,25.119-25.119V84.443h17.637c9.136,0,16.568-7.432,16.568-16.568V50.772  C460.693,41.637,453.261,34.205,444.125,34.205z M306.772,461.228c0-19.155,15.583-34.739,34.739-34.739  c19.156,0,34.739,15.584,34.739,34.739c0,19.155-15.583,34.739-34.739,34.739C322.356,495.967,306.772,480.382,306.772,461.228z   M410.455,110.63c0,5.01-4.076,9.086-9.086,9.086H76.426c-5.01,0-9.086-4.076-9.086-9.086V67.34h42.756  c4.428,0,8.017-3.589,8.017-8.017s-3.588-8.017-8.017-8.017H67.34v-9.086c0-14.44,11.747-26.188,26.188-26.188h290.739  c14.441,0,26.188,11.748,26.188,26.188v9.086h-265.62c-4.428,0-8.017,3.589-8.017,8.017s3.588,8.017,8.017,8.017h265.62V110.63z   M444.66,67.875c0,0.295-0.241,0.534-0.534,0.534h-17.637V50.238h17.637c0.294,0,0.534,0.239,0.534,0.534V67.875z"/>
<path d="M341.511,436.109c-13.851,0-25.119,11.268-25.119,25.119s11.268,25.119,25.119,25.119c13.851,0,25.119-11.268,25.119-25.119  S355.362,436.109,341.511,436.109z M341.511,470.313c-5.01,0-9.086-4.076-9.086-9.086s4.076-9.086,9.086-9.086  c5.01,0,9.086,4.076,9.086,9.086S346.521,470.313,341.511,470.313z"/>
<path d="M151.139,337.614c4.61,7.46,12.598,11.914,21.367,11.914h38.866c4.428,0,8.017-3.589,8.017-8.017  c0-4.427-3.588-8.017-8.017-8.017h-38.866c-3.219,0-6.036-1.57-7.728-4.309c-1.692-2.739-1.837-5.96-0.398-8.84l31.252-62.505  l1.283,5.129c1.089,4.354,5.708,7.004,10.019,5.753c4.082-1.185,6.566-5.52,5.536-9.641l-5.866-23.464  c-1.074-4.296-5.429-6.906-9.723-5.833l-0.56,0.14c-1.102,0.043-2.179,0.317-3.167,0.792l-19.736,4.934  c-4.296,1.073-6.906,5.427-5.833,9.722c1.075,4.297,5.432,6.908,9.723,5.833l4.25-1.062l-31.516,63.034  C146.119,321.02,146.529,330.156,151.139,337.614z"/>
<path d="M326.656,337.614c4.61-7.46,5.021-16.596,1.099-24.439l-14.936-29.871c-1.979-3.96-6.793-5.565-10.756-3.585  c-3.959,1.98-5.565,6.795-3.585,10.755l14.936,29.871c2.981,5.962-1.485,13.148-8.127,13.148h-47.036l3.417-3.417  c3.131-3.131,3.131-8.207,0-11.337c-3.132-3.131-8.207-3.131-11.338,0l-17.102,17.102c-3.131,3.131-3.131,8.207,0,11.337  l17.102,17.102c3.261,3.26,8.766,3.041,11.764-0.46c2.686-3.137,2.493-7.959-0.425-10.877l-3.417-3.416h47.036  C314.057,349.528,322.046,345.074,326.656,337.614z"/>
<path d="M238.898,182.542c3.516,0,6.553,1.877,8.127,5.022l31.773,63.545l-5.289-1.322c-4.298-1.074-8.647,1.537-9.723,5.833  c-1.073,4.295,1.537,8.647,5.833,9.722l23.463,5.866c4.24,1.06,8.662-1.595,9.723-5.833l5.866-23.464  c1.058-4.237-1.595-8.663-5.833-9.722c-4.237-1.058-8.661,1.596-9.723,5.833l-0.979,3.916l-30.772-61.545  c-4.282-8.565-12.892-13.885-22.467-13.885c-9.575,0-18.185,5.321-22.467,13.885l-14.472,28.945  c-1.981,3.96-0.375,8.776,3.585,10.755c3.962,1.981,8.777,0.375,10.756-3.585l14.472-28.945  C232.344,184.42,235.382,182.542,238.898,182.542z"/>
<g>
</g>
<g>
</g>
<g>
</g>
<g>
</g>
<g>
</g>
<g>
</g>
<g>
</g>
<g>
</g>
<g>
</g>
<g>
</g>
<g>
</g>
<g>
</g>
<g>
</g>
<g>
</g>
<g>
</g>
<script xmlns=""/></svg>