<?xml version="1.0" encoding="iso-8859-1"?>
<!-- Generator: Adobe Illustrator 19.0.0, SVG Export Plug-In . SVG Version: 6.00 Build 0)  -->
<svg version="1.1" id="Capa_1" xmlns="http://www.w3.org/2000/svg" xmlns:xlink="http://www.w3.org/1999/xlink" x="0px" y="0px"
	 viewBox="0 0 511.999 511.999" style="enable-background:new 0 0 511.999 511.999;" xml:space="preserve">
<circle style="fill:#FF5D5D;" cx="82.05" cy="431.35" r="32.368"/>
<path style="fill:#D8D8E4;" d="M278.001,347.404v21c0,6.075-4.925,11-11,11h-22c-6.075,0-11-4.925-11-11v-21H278.001z"/>
<path style="fill:#2E9DE3;" d="M336.001,211.404h-160c-15.464,0-28-12.536-28-28l0,0c0-15.464,12.536-28,28-28h160
	c15.464,0,28,12.536,28,28l0,0C364.001,198.868,351.465,211.404,336.001,211.404z"/>
<path style="fill:#72D8FF;" d="M336.001,211.404v56c0,44.183-35.817,80-80,80l0,0c-44.183,0-80-35.817-80-80v-56"/>
<g>
	<path style="fill:#D8D8E4;" d="M201.001,63.404L201.001,63.404c-11.046,0-20,8.954-20,20v72h40v-72
		C221.001,72.358,212.047,63.404,201.001,63.404z"/>
	<path style="fill:#D8D8E4;" d="M311.001,63.404L311.001,63.404c-11.046,0-20,8.954-20,20v72h40v-72
		C331.001,72.358,322.047,63.404,311.001,63.404z"/>
</g>
<path d="M82.053,388.984c-6.685,0-13.129,1.55-18.938,4.458C6.032,312.568,5.834,201.743,63.598,120.673
	c3.204-4.498,2.156-10.742-2.342-13.947s-10.742-2.157-13.947,2.341C15.446,153.786-0.9,206.594,0.038,261.781
	C0.931,314.3,17.421,364.12,47.802,406.413c-12.072,16.56-10.643,39.962,4.292,54.899c8.26,8.259,19.109,12.389,29.959,12.389
	s21.699-4.13,29.959-12.389l0,0c16.519-16.52,16.519-43.398,0-59.918C104.009,393.391,93.369,388.984,82.053,388.984z
	 M97.869,447.169c-8.723,8.721-22.912,8.721-31.633,0c-8.722-8.722-8.722-22.913,0-31.634c4.225-4.225,9.842-6.552,15.816-6.552
	s11.592,2.327,15.816,6.552C106.591,424.257,106.591,438.448,97.869,447.169z"/>
<path d="M394.002,448.896c-28.588,20.657-60.725,34.342-95.519,40.675c-8.062,1.468-16.284-0.693-22.557-5.927
	c-6.228-5.196-9.799-12.83-9.799-20.943v-73.298H267c11.579,0,21-9.42,21-21V351.52c33.873-12.93,58-45.756,58-84.116v-47.345
	c16.116-4.402,28-19.163,28-36.655c0-19.257-14.403-35.204-33-37.661V83.404c0-16.542-13.458-30-30-30s-30,13.458-30,30v62h-50v-62
	c0-16.542-13.458-30-30-30s-30,13.458-30,30v62.339c-18.597,2.457-33,18.403-33,37.661c0,17.492,11.884,32.253,28,36.655v47.345
	c0,38.36,24.127,71.186,58,84.116v16.884c0,11.58,9.421,21,21,21h1.127v73.298c0,14.062,6.191,27.292,16.985,36.299
	c8.615,7.188,19.351,11.023,30.379,11.023c2.849,0,5.717-0.256,8.573-0.776c37.752-6.872,72.625-21.723,103.649-44.141
	c4.477-3.235,5.483-9.486,2.249-13.962C404.731,446.669,398.481,445.661,394.002,448.896z M301.001,83.404c0-5.514,4.486-10,10-10
	s10,4.486,10,10v62h-20V83.404z M191.001,83.404c0-5.514,4.486-10,10-10s10,4.486,10,10v62h-20V83.404z M158.001,183.404
	c0-9.925,8.075-18,18-18h160c9.925,0,18,8.075,18,18s-8.075,18-18,18h-160C166.076,201.404,158.001,193.329,158.001,183.404z
	 M186.001,267.404v-46h140v46c0,38.598-31.402,70-70,70S186.001,306.002,186.001,267.404z M244.001,368.404v-11.802
	c3.927,0.526,7.932,0.802,12,0.802s8.073-0.276,12-0.802v11.802c0,0.551-0.448,1-1,1H256.38c-0.084-0.002-0.167-0.013-0.251-0.013
	s-0.167,0.011-0.251,0.013h-10.875C244.449,369.404,244.001,368.955,244.001,368.404z"/>
<path d="M422.844,424.315c-0.077,0.078-0.154,0.158-0.227,0.235c-3.769,4.038-3.55,10.365,0.487,14.134
	c1.928,1.799,4.377,2.689,6.821,2.689c2.583,0,5.16-0.995,7.107-2.963c0.077-0.078,0.154-0.158,0.227-0.235
	c3.769-4.038,3.55-10.365-0.487-14.134C432.809,420.341,426.634,420.484,422.844,424.315z"/>
<path d="M511.321,238.712c-4.455-61.218-30.842-118.866-74.297-162.323c-42.712-42.715-99.768-68.861-160.657-73.62
	C216.22-1.934,156.359,14.388,107.791,48.724c-4.51,3.188-5.581,9.429-2.393,13.938c3.187,4.509,9.429,5.582,13.938,2.393
	c92.873-65.657,223.369-54.706,303.546,25.476c82.857,82.861,92.876,211.536,23.821,305.96c-3.26,4.458-2.289,10.714,2.169,13.975
	c1.78,1.302,3.847,1.929,5.896,1.929c3.081,0,6.121-1.419,8.08-4.098C498.516,359.523,515.732,299.297,511.321,238.712z"/>
<path d="M80.706,94.813c2.573,0,5.147-0.988,7.103-2.96l0.163-0.166c3.888-3.922,3.859-10.254-0.063-14.142
	c-3.923-3.887-10.255-3.861-14.143,0.063l-0.163,0.166c-3.888,3.922-3.859,10.254,0.063,14.142
	C75.616,93.848,78.161,94.813,80.706,94.813z"/>
<path d="M257.909,310.215l20.701-36.55c1.754-3.096,1.73-6.89-0.062-9.964s-5.082-4.964-8.64-4.964h-7.146l13.162-16.626
	c3.428-4.33,2.696-10.62-1.634-14.047c-4.33-3.429-10.62-2.696-14.048,1.633L234.25,262.53c-2.38,3.007-2.831,7.11-1.161,10.562
	s5.167,5.645,9.002,5.645h10.66l-12.246,21.622c-2.722,4.806-1.032,10.908,3.772,13.629c1.558,0.882,3.249,1.301,4.92,1.301
	C252.684,315.288,256.069,313.463,257.909,310.215z"/>
<g>
</g>
<g>
</g>
<g>
</g>
<g>
</g>
<g>
</g>
<g>
</g>
<g>
</g>
<g>
</g>
<g>
</g>
<g>
</g>
<g>
</g>
<g>
</g>
<g>
</g>
<g>
</g>
<g>
</g>
</svg>
