<svg height="512" viewBox="0 0 60 61" width="512" xmlns="http://www.w3.org/2000/svg"><g id="013---Social-Interaction-Thoughts" fill="none"><g id="Layer_3" transform="translate(1)"><g fill="#ef314c"><path id="Shape" d="m28 4.84c.0316672 1.08675324-.3226143 2.14959775-1 3-.4970647.57136785-1.0280221 1.11234325-1.59 1.62-.76.74-2.75 2.44-3.78 3.31-.3671855.2978732-.8928145.2978732-1.26 0-1-.87-3-2.57-3.78-3.31-1-1-2.59-2.05-2.59-4.62s1.56-3.84 3.63-3.84c1.2976275.00017118 2.5049647.66420661 3.2 1.76.0364679.05884339.1007725.09464346.17.09464346s.1335321-.03580007.17-.09464346c.6950353-1.09579339 1.9023725-1.75982882 3.2-1.76.9765977-.04076273 1.9271973.32068198 2.63 1 .701039.77405554 1.0613998 1.79748008 1 2.84z"/><path id="Shape" d="m13 13.92c-.0512176.9300639-.5315482 1.7835744-1.3 2.31-.37.37-1.37 1.22-1.89 1.65-.17562296.1601961-.44437704.1601961-.62 0-.52-.43-1.52-1.28-1.89-1.65-.76845183-.5264256-1.24878244-1.3799361-1.3-2.31-.0565089-.5050091.11187117-1.009324.46044692-1.3790839.34857574-.3697599.84209156-.5675666 1.34955308-.5409161.65164548-.0005193 1.25858918.3312263 1.61.88.01543561.0299495.04630683.0487689.08.0487689s.06456439-.0188194.08-.0487689c.35141082-.5487737.9583545-.8805193 1.61-.88.5074615-.0266505 1.0009773.1711562 1.3495531.5409161.3485757.3697599.5169558.8740748.4604469 1.3790839z"/><path id="Shape" d="m56 2.92c-.0419442.93274339-.5244454 1.79011096-1.3 2.31-.37.37-1.37 1.22-1.89 1.65-.175623.16019612-.444377.16019612-.62 0-.52-.43-1.52-1.28-1.89-1.65-.7755546-.51988904-1.2580558-1.37725661-1.3-2.31-.0565089-.50500909.1118712-1.00932399.4604469-1.3790839.3485758-.3697599.8420916-.56756661 1.3495531-.5409161.6516455-.00051929 1.2585892.33122633 1.61.88.0154356.02994948.0463068.04876894.08.04876894s.0645644-.01881946.08-.04876894c.3514108-.54877367.9583545-.88051929 1.61-.88.5074615-.02665051 1.0009773.1711562 1.3495531.5409161.3485757.36975991.5169558.87407481.4604469 1.3790839z"/><path id="Shape" d="m56 15.92c-.0512176.9300639-.5315482 1.7835744-1.3 2.31-.37.37-1.37 1.22-1.89 1.65-.175623.1601961-.444377.1601961-.62 0-.52-.43-1.52-1.28-1.89-1.65-.7684518-.5264256-1.2487824-1.3799361-1.3-2.31-.0565089-.5050091.1118712-1.009324.4604469-1.3790839.3485758-.3697599.8420916-.5675666 1.3495531-.5409161.6516455-.0005193 1.2585892.3312263 1.61.88.0154356.0299495.0463068.0487689.08.0487689s.0645644-.0188194.08-.0487689c.3514108-.5487737.9583545-.8805193 1.61-.88.5074615-.0266505 1.0009773.1711562 1.3495531.5409161.3485757.3697599.5169558.8740748.4604469 1.3790839z"/></g><path id="Shape" d="m16.09 33.36v.64c-1.9169952-.935742-3.3328877-2.6581679-3.88-4.72 0 0-.69-4.66.7-5.17.7675988-.2137199 1.5912139-.0256799 2.19.5.22 4.64.99 5.98.99 8.75z" fill="#ffe0b2"/><path id="Shape" d="m15.78 59h-15.78c-.00462568-.3740829.08843996-.7428986.27-1.07.6-1 2.29-1.6 3.3-2.14 1.44-.76 2.86666667-1.5333333 4.28-2.32 1.56984577-.9527669 3.2914681-1.6292393 5.09-2 .7716735-.1561297 1.5208114-.4080819 2.23-.75-.3601602 2.7728114-.1526207 5.5899055.61 8.28z" fill="#9d27b0"/><path id="Shape" d="m42.22 59c.7694486-2.7059818.9770399-5.540794.61-8.33.7091886.3419181 1.4583265.5938703 2.23.75 1.7985319.3707607 3.5201542 1.0472331 5.09 2 1.4133333.7933333 2.84 1.5666667 4.28 2.32 1 .54 2.7 1.11 3.3 2.14.1902127.3418192.2835644.729056.27 1.12z" fill="#9d27b0"/><path id="Shape" d="m57.73 57.93c-.6-1-2.29-1.6-3.3-2.14-1.44-.76-2.8666667-1.5333333-4.28-2.32-1.5698458-.9527669-3.2914681-1.6292393-5.09-2-.7716735-.1561297-1.5208114-.4080819-2.23-.75 0 .27.06.6.09 1 1.4827791.4302087 2.9043463 1.0485736 4.23 1.84 1.4133333.7933333 2.84 1.5666667 4.28 2.32 1 .54 2.7 1.11 3.3 2.14.1670398.3003889.2596275.6364477.27.98h3c.0046257-.3740829-.08844-.7428986-.27-1.07z" fill="#6a1b9a"/><path id="Shape" d="m42.22 59h-26.44c-.7694486-2.7059818-.9770399-5.540794-.61-8.33.27-.13.52-.26.77-.4 1.0928396-.6030628 2.118585-1.3204141 3.06-2.14v-3.9l.07.07c3.93 3.83 3.93 7.7 7.93 7.7h4c4 0 4-3.83 7.94-7.66l.07-.07v3.9c.941415.8195859 1.9671604 1.5369372 3.06 2.14.25.14.5.27.77.4.3582855 2.7767683.1473324 5.5974154-.62 8.29z" fill="#ffe0b2"/><path id="Shape" d="m43 21v1c0 1 0 1.82-.07 2.58-.25 4.64-1 6-1 8.75v.64c.09 3.54.75 6.65-2.92 10.23l-.07.07c-3.94 3.86-3.94 7.73-7.94 7.73h-4c-4 0-4-3.83-7.94-7.66l-.06-.11c-3.67-3.58-3-6.69-2.92-10.23 0-.21 0-.42 0-.64 0-2.77-.77-4.11-1-8.75-.08-.76-.08-1.61-.08-2.61v-1c0 2.06 5.47 3.76 12.5 4h1.5c7.73 0 14-1.79 14-4z" fill="#ffe0b2"/><path id="Shape" d="m40 23.48v1.13c-.25 4.64-1 6-1 8.75v.64c.09 3.54.75 6.65-2.92 10.23l-.07.07c-4.01 3.83-4.01 7.7-8.01 7.7h3c4 0 4-3.83 7.94-7.66l.07-.07c3.67-3.58 3-6.69 2.92-10.23 0-.21 0-.42 0-.64 0-2.77.77-4.11 1-8.75.07-.8.07-1.65.07-2.65v-1c0 .94-1.14 1.8-3 2.48z" fill="#dfc49c"/><path id="Shape" d="m45.82 29.28c-.5471123 2.0618321-1.9630048 3.784258-3.88 4.72 0-.21 0-.42 0-.64 0-2.77.77-4.11 1-8.75.5987861-.5256799 1.4224012-.7137199 2.19-.5 1.38.51.69 5.17.69 5.17z" fill="#ffe0b2"/><path id="Shape" d="m43 21c0 2.21-6.27 4-14 4h-1.5c-7-.22-12.5-1.92-12.5-4s5.47-3.76 12.5-4h1.5 2v.55c-.0108083.3808367.1329596.7498384.3985665 1.0229802.2656068.2731418.6304435.4271731 1.0114335.4270198.3745594.001582.734356-.1459346 1-.41l1.24-1.24c4.92.65 8.35 2.02 8.35 3.65z" fill="#ef314c"/><path id="Shape" d="m34.65 17.35-.42.42c3.5.72 5.77 1.9 5.77 3.23 0 2.07-5.5 3.77-12.54 4h1.54c7.73 0 14-1.79 14-4 0-1.63-3.43-3-8.35-3.65z" fill="#bb193b"/><path id="Shape" d="m45 2v12c0 .5522847-.4477153 1-1 1h-7l-2.35 2.35-1.24 1.24c-.265644.2640654-.6254406.411582-1 .41-.7787215 0-1.41-.6312785-1.41-1.41v-2.59h-3c-.5522847 0-1-.4477153-1-1v-6.16c.6773857-.85040225 1.0316672-1.91324676 1-3 .0613998-1.04251992-.298961-2.06594446-1-2.84 0-.55228475.4477153-1 1-1h16c.2652165 0 .5195704.10535684.7071068.29289322s.2928932.44189029.2928932.70710678z" fill="#9d27b0"/><path id="Shape" d="m31.65 17.35-.6.6c.1631111.6176852.7211432 1.0485188 1.36 1.05.3745594.001582.734356-.1459346 1-.41l1.24-1.24 2.35-2.35h-3z" fill="#6a1b9a"/><path id="Shape" d="m44 1h-3c.5522847 0 1 .44771525 1 1v12c0 .5522847-.4477153 1-1 1h3c.5522847 0 1-.4477153 1-1v-12c0-.55228475-.4477153-1-1-1z" fill="#6a1b9a"/></g><g id="Layer_2" fill="#000" transform="translate(0 -1)"><path id="Shape" d="m7.39 17.75c.74.69 1.08 1 2.15 1.9.5561716.4632502 1.3638284.4632502 1.92 0 1.5-1.27 1.74-1.52 2.15-1.9.8725664-.6804521 1.384872-1.7234916 1.39-2.83.0533951-1.0895365-.5285985-2.1115274-1.4928818-2.6215261-.9642832-.5099987-2.1365955-.4158408-3.0071182.2415261-.87052266-.6573669-2.04283497-.7515248-3.00711824-.2415261-.96428326.5099987-1.5462769 1.5319896-1.49288176 2.6215261.00512802 1.1065084.51743365 2.1495479 1.39 2.83zm1.42-3.75c.31213414-.0030032.6035352.1559428.77.42.20973997.3048454.5503322.4936519.92.51.3674551-.0155433.7070759-.2001198.92-.5.1611386-.270886.454848-.4349055.77-.43.56 0 .81.28.81.92s-.26.9-.75 1.36-.35.37-1.75 1.56c-2.39-2.04-2.5-2.24-2.5-2.92s.25-.92.81-.92z"/><path id="Shape" d="m49 3.92c0 1.77.9 2.5 3.54 4.73.5531766.47145303 1.3668234.47145303 1.92 0 2.59-2.19 3.54-2.96 3.54-4.73.0533951-1.08953653-.5285985-2.11152737-1.4928818-2.62152608-.9642832-.5099987-2.1365955-.41584078-3.0071182.24152608-.8705227-.65736686-2.042835-.75152478-3.0071182-.24152608-.9642833.50999871-1.5462769 1.53198955-1.4928818 2.62152608zm2.81-.92c.315152-.00490546.6088614.15911403.77.43.2032844.31015576.5491616.49700746.92.49700746s.7167156-.1868517.92-.49700746c.1611386-.27088597.454848-.43490546.77-.43.56 0 .81.28.81.92s-.26.9-.75 1.36-.37.39-1.75 1.56c-1.38-1.17-1.39-1.23-1.75-1.56s-.75-.72-.75-1.36.25-.92.81-.92z"/><path id="Shape" d="m53.5 14.54c-.8705227-.6573669-2.042835-.7515248-3.0071182-.2415261-.9642833.5099987-1.5462769 1.5319896-1.4928818 2.6215261 0 1.77.9 2.5 3.54 4.73.5561716.4632502 1.3638284.4632502 1.92 0 2.59-2.19 3.54-3 3.54-4.73.0533951-1.0895365-.5285985-2.1115274-1.4928818-2.6215261-.9642832-.5099987-2.1365955-.4158408-3.0071182.2415261zm2.5 2.38c0 .64 0 .81-2.5 2.92-.75-.64-1.28-1.1-1.5-1.32-.57-.57-1-.8-1-1.6 0-.64.25-.92.81-.92.3121341-.0030032.6035352.1559428.77.42.20974.3048454.5503322.4936519.92.51.3674551-.0155433.7070759-.2001198.92-.5.1611386-.270886.454848-.4349055.77-.43.56 0 .81.28.81.92z"/><path id="Shape" d="m35.12 20.3 3.29-3.3h6.59c1.1045695 0 2-.8954305 2-2v-12c0-1.1045695-.8954305-2-2-2h-16c-.5018106.00425832-.9836831.19700731-1.35.54-1.8691519-.96727286-4.1481809-.62441008-5.65.85-2.62-2.61-8-1.64-8 3.45.0062447 1.93427793.9163245 3.7544375 2.46 4.92.69.64 1 1 4.27 3.77.7289884.631298 1.8110116.631298 2.54 0 1.06-.89 2.9-2.46 3.73-3.26v3.73c0 1.1045695.8954305 2 2 2h2v1.59c.0049462.9736859.5929678 1.8495758 1.4922821 2.2228349.8993144.3732591 1.9347451.1711807 2.6277179-.5128349zm-8.94-11c-2.84 2.62-1.25 1.15-4.18 3.7-3.25-2.74-3.5-3.06-4.2-3.71-1.1208714-.79276715-1.7909778-2.07713764-1.8-3.45 0-1.84.93-2.84 2.63-2.84.9636536-.00361642 1.8604454.49207864 2.37 1.31.2335803.31857132.6049716.50678789 1 .50678789s.7664197-.18821657 1-.50678789c.5095546-.81792136 1.4063464-1.31361642 2.37-1.31 1.63 0 2.63 1 2.63 2.84-.013616 1.37651132-.6915492 2.66160444-1.82 3.45zm2.82 5.7v-5.84c1.2334429-1.84260913 1.3337876-4.22000777.26-6.16h15.74v12h-7c-.265803-.0015368-.5212812.1028135-.71.29l-3.59 3.59c-.1226188.1002354-.2904104.1249543-.4367257.0643379-.1463153-.0606163-.2474663-.1967542-.2632743-.3543379v-2.59c0-.5522847-.4477153-1-1-1z"/><path id="Shape" d="m1 61c.1 0 58 .06 58.38-.07.3767941-.1547874.6220401-.5226565.62-.93-.06-2-1.51-2.83-3.37-3.71-1.07-.5-4-2.11-5-2.66-4.75-2.72-5.14-1.55-8.1-3.21-.8937399-.5068668-1.7404353-1.0925256-2.53-1.75v-3c3.19-3.31 3.1-6.15 3-10.05 1.9261901-1.1284974 3.3173215-2.9845406 3.86-5.15.53-3.18.36-7-2.83-6.38 0-.94 0-.8 0-2.05 0-1.58-1.59-2.85-4.72-3.76-.5301934-.1546397-1.0853602.1498067-1.24.68-.1546397.5301934.1498067 1.0853603.68 1.24 2.65.74 3.25 1.57 3.25 1.8 0 .9-4.42 3-13 3s-13-2.1-13-3c0-.44 1.69-1.89 7.13-2.62.5522847-.071797.941797-.5777153.87-1.13s-.5777153-.941797-1.13-.87c-3.32.46-8.87 1.62-8.87 4.62v2.05c-3.2-.59-3.36 3.23-2.82 6.42.545791 2.1508747 1.9330714 3.9921741 3.85 5.11-.16 4-.22 6.77 2.95 10.05v3c-.7995658.6477163-1.6526226 1.2264568-2.55 1.73-3 1.65-3.31.45-8.08 3.2-1 .53-3.91 2.15-5 2.66-1.84.92-3.29 1.72-3.35 3.78 0 .5522847.44771525 1 1 1zm49.69-5.66c5.61 3.14 6 3 6.79 3.66h-12.95c.4224616-1.9093211.5806068-3.8676305.47-5.82 2.0057694.3574553 3.926048 1.0902825 5.66 2.16zm-5-29.34c.33.36.44 2.38.15 4.09-.3119012 1.1609748-.9588136 2.204382-1.86 3 .19-1.93.69-3.37.91-6.9.2337461-.1606466.5189826-.2283903.8-.19zm-31.52 4.14c-.26-1.77-.2-3.78.06-4.09.2998116-.0821567.6204856-.0311403.88.14.22 3.52.72 5 .91 6.89-.8872393-.7811259-1.5297041-1.802124-1.85-2.94zm3.83 6.17c.24-5.42-.78-5.45-1-11.62 5.44 3.08 20.47 3.08 25.92 0-.21 6.06-1.23 6.24-1 11.62.13 3 .24 5.4-2.73 8.27-1.3141837 1.3053149-2.4597605 2.7700406-3.41 4.36-2.25 3.51-2.23 3-7.82 3-3.24 0-3.26-3.54-7.25-7.38-2.92-2.85-2.81-5.23-2.71-8.25zm1 14.86v1.83c0 .5522847.4477153 1 1 1s1-.4477153 1-1v-5.14c2.36 3.14 3.12 6.14 7 6.14 5.78 0 6.63.54 9.51-4 .43-.67.91-1.4 1.48-2.15v5.15c0 .5522847.4477153 1 1 1s1-.4477153 1-1v-1.83c.6045014.420754 1.2358459.801565 1.89 1.14.2350712 2.2377968.0931014 4.4991736-.42 6.69h-24.92c-.516447-2.1902619-.6617974-4.4516447-.43-6.69.6550489-.3368334 1.2864979-.7177074 1.89-1.14zm-9.65 4.17c1.7280983-1.0742357 3.6460001-1.8074513 5.65-2.16-.1106068 1.9523695.0475384 3.9106789.47 5.82h-12.92c.81-.63 1.2-.54 6.8-3.66z"/><path id="Shape" d="m33 8h1c.5522847 0 1-.44771525 1-1s-.4477153-1-1-1h-1c-.5522847 0-1 .44771525-1 1s.4477153 1 1 1z"/><path id="Shape" d="m38 8h4c.5522847 0 1-.44771525 1-1s-.4477153-1-1-1h-4c-.5522847 0-1 .44771525-1 1s.4477153 1 1 1z"/><path id="Shape" d="m33 12h4c.5522847 0 1-.4477153 1-1s-.4477153-1-1-1h-4c-.5522847 0-1 .4477153-1 1s.4477153 1 1 1z"/></g></g></svg>