<?xml version="1.0" encoding="windows-1252"?>
<!-- Generator: Adobe Illustrator 19.0.0, SVG Export Plug-In . SVG Version: 6.00 Build 0)  -->
<svg version="1.1" id="Capa_1" xmlns="http://www.w3.org/2000/svg" xmlns:xlink="http://www.w3.org/1999/xlink" x="0px" y="0px" viewBox="0 0 464.98 464.98" style="enable-background:new 0 0 464.98 464.98;" xml:space="preserve">
<g>
	<path style="fill:#1185E0;" d="M402.286,216.033h-73.143c-8.882,0-15.673-6.792-15.673-15.673c0-8.882,6.792-15.673,15.673-15.673   h73.143c8.882,0,15.673,6.792,15.673,15.673C417.959,209.241,411.167,216.033,402.286,216.033z"/>
	<path style="fill:#1185E0;" d="M365.714,378.514c-25.6,0-46.498-20.898-46.498-46.498s20.898-46.498,46.498-46.498   c25.6,0,46.498,20.898,46.498,46.498S391.314,378.514,365.714,378.514z M365.714,316.865c-8.359,0-15.151,6.792-15.151,15.151   c0,8.359,6.792,15.151,15.151,15.151c8.359,0,15.151-6.792,15.151-15.151C380.865,323.657,374.073,316.865,365.714,316.865z"/>
	<path style="fill:#1185E0;" d="M402.286,268.278h-73.143c-8.882,0-15.673-6.792-15.673-15.673s6.792-15.673,15.673-15.673h73.143   c8.882,0,15.673,6.792,15.673,15.673S411.167,268.278,402.286,268.278z"/>
</g>
<path style="fill:#4DCFE0;" d="M276.898,386.873H73.143c-8.882,0-15.673-6.792-15.673-15.673V193.567  c0-8.882,6.792-15.673,15.673-15.673h203.755c8.882,0,15.673,6.792,15.673,15.673V371.2  C292.571,380.082,285.78,386.873,276.898,386.873z M88.816,355.527h172.408V209.241H88.816V355.527z"/>
<path style="fill:#1185E0;" d="M433.633,111.543H270.629l72.098-71.053c6.269-6.269,6.269-16.196,0-21.943  c-6.269-6.269-16.196-6.269-21.943,0l-80.457,78.89l-80.457-78.89c-6.269-6.269-16.196-5.747-21.943,0  c-6.269,6.269-5.747,16.196,0,21.943l72.098,71.053H31.347C13.584,111.543,0,125.127,0,142.89v276.898  c0,17.763,13.584,31.347,31.347,31.347h402.286c17.763,0,31.347-13.584,31.347-31.347V142.89  C464.98,125.127,451.396,111.543,433.633,111.543z M433.633,419.788H31.347V142.89l0,0h402.286V419.788z"/>
<g>
</g>
<g>
</g>
<g>
</g>
<g>
</g>
<g>
</g>
<g>
</g>
<g>
</g>
<g>
</g>
<g>
</g>
<g>
</g>
<g>
</g>
<g>
</g>
<g>
</g>
<g>
</g>
<g>
</g>
<script xmlns=""/></svg>