<svg height="480pt" viewBox="0 0 480.648 480" width="480pt" xmlns="http://www.w3.org/2000/svg"><path d="m8 136.324219h80v304h-80zm0 0" fill="#5eac24"/><path d="m88 128.324219v-24h-80v32h80zm0 0" fill="#4e901e"/><path d="m88 80.324219v-24c-.027344-8.824219-7.175781-15.972657-16-16h-48c-8.824219.027343-15.972656 7.175781-16 16v48h80zm0 0" fill="#7ed63e"/><path d="m152 8.324219h-48c-8.824219.027343-15.972656 7.175781-16 16v24h80v-24c-.027344-8.824219-7.175781-15.972657-16-16zm0 0" fill="#ffe477"/><path d="m456 392.324219h-32v80h32c8.835938 0 16-7.164063 16-16v-48c0-8.835938-7.164062-16-16-16zm0 0" fill="#57a4ff"/><path d="m408 392.324219h-16v80h32v-80zm0 0" fill="#005ece"/><path d="m376 392.324219h-288v80h304v-80zm0 0" fill="#006df0"/><path d="m24 392.324219c-8.835938 0-16 7.164062-16 16v48c0 8.835937 7.164062 16 16 16h32v-80zm0 0" fill="#57a4ff"/><path d="m56 392.324219h32v80h-32zm0 0" fill="#005ece"/><path d="m344 312.324219h32v80h-32zm0 0" fill="#ab2300"/><path d="m392 392.324219h16c8.835938 0 16-7.164063 16-16v-48c0-8.835938-7.164062-16-16-16h-32v80zm0 0" fill="#ff5023"/><path d="m88 312.324219h-32c-8.835938 0-16 7.164062-16 16v48c0 8.835937 7.164062 16 16 16h32zm0 0" fill="#ff5023"/><path d="m88 312.324219h32v80h-32zm0 0" fill="#ab2300"/><path d="m312 312.324219h-192v80h224v-80zm0 0" fill="#ee2820"/><path d="m425.375 272.324219 22.625 38.625 22.625-38.625-22.625-22.625zm0 0" fill="#ee2820"/><path d="m88 48.324219h80v32h-80zm0 0" fill="#cca400"/><path d="m88 80.324219h80v232h-80zm0 0" fill="#ffcd00"/><path d="m114.742188 128.324219 173.257812 77.253906 173.257812-77.253906-173.257812-77.257813zm0 0" fill="#1c2e5b"/><path d="m288 205.578125-112-49.941406v100.6875l.878906.480469c68.851563 39.359374 153.390625 39.359374 222.242188 0l.878906-.480469v-100.6875zm0 0" fill="#254b6f"/><path d="m400 155.605469v16l-112 50-112-50v-16l112 50zm0 0" fill="#214364"/><path d="m456 472.324219h-432c-8.835938 0-16-7.164063-16-16h464c0 8.835937-7.164062 16-16 16zm0 0" fill="#254b6f"/><path d="m40 376.324219h384c0 8.835937-7.164062 16-16 16h-352c-8.835938 0-16-7.164063-16-16zm0 0" fill="#d6241d"/><g fill="#231f20"><path d="m456 384.324219h-25.472656c.898437-2.511719 1.472656-56 1.472656-56 0-13.253907-10.746094-24-24-24h-352c-13.253906 0-24 10.746093-24 24v48c.027344 2.730469.523438 5.4375 1.472656 8h-9.472656c-13.253906 0-24 10.746093-24 24v48c0 13.253906 10.746094 24 24 24h432c13.253906 0 24-10.746094 24-24v-48c0-13.253907-10.746094-24-24-24zm-216 32v48h-8v-48h-16v48h-80v-24h-16v24h-24v-64h224v40h16v-40h48v64h-128v-48zm-176-16h16v64h-16zm32-16v-64h16v64zm256 0v-64h16v64zm48 16h16v64h-16zm16-72v48c0 4.417969-3.582031 8-8 8h-24v-64h24c4.417969 0 8 3.582031 8 8zm-184-8v16h16v-16h56v40h16v-40h16v64h-152v-24h-16v24h-40v-64zm-184 56v-48c0-4.417969 3.582031-8 8-8h24v64h-24c-4.417969 0-8-3.582031-8-8zm-32 80v-48c0-4.417969 3.582031-8 8-8h24v64h-24c-4.417969 0-8-3.582031-8-8zm448 0c0 4.417969-3.582031 8-8 8h-24v-64h24c4.417969 0 8 3.582031 8 8zm0 0"/><path d="m16 280.324219h24v-16h-24v-120h64v144h16v-40h40v-16h-40v-144h80v-64c0-13.253907-10.746094-24-24-24h-48c-13.253906 0-24 10.746093-24 24v9.472656c-2.5625-.949219-5.269531-1.445313-8-1.472656h-48c-13.253906 0-24 10.746093-24 24v312h16zm64-152h-64v-16h64zm16-56v-16h64v16zm8-56h48c4.417969 0 8 3.582031 8 8v16h-64v-16c0-4.417969 3.582031-8 8-8zm-80 32h48c4.417969 0 8 3.582031 8 8v40h-64v-40c0-4.417969 3.582031-8 8-8zm0 0"/><path d="m106.742188 128.324219c.003906 3.15625 1.863281 6.019531 4.746093 7.304687l56.511719 25.199219v95.496094c0 2.925781 1.597656 5.621093 4.167969 7.023437l.742187.398438c71.308594 40.554687 158.699219 40.585937 230.035156.082031l.886719-.480469c2.570313-1.402344 4.167969-4.097656 4.167969-7.023437v-95.496094l32-14.273437v99.824218l-24.648438 24.65625 32.648438 55.746094 32.648438-55.746094-24.648438-24.65625v-106.949218l8.511719-3.800782c2.882812-1.289062 4.738281-4.148437 4.738281-7.304687s-1.855469-6.015625-4.738281-7.304688l-173.253907-77.253906c-2.074218-.925781-4.441406-.925781-6.515624 0l-173.253907 77.253906c-2.882812 1.285157-4.742187 4.148438-4.746093 7.304688zm341.257812 166.800781-12.601562-21.511719 12.601562-12.601562 12.601562 12.601562zm-56-43.503906c-64.8125 35.410156-143.1875 35.410156-208 0v-83.65625l100.742188 44.917968c2.074218.925782 4.441406.925782 6.515624 0l100.742188-44.917968zm-104-191.792969 153.601562 68.496094-153.601562 68.496093-153.601562-68.496093zm0 0"/><path d="m160 280.324219h16v14.632812h-16zm0 0"/></g><script xmlns=""/></svg>