<svg id="Layer_3" enable-background="new 0 0 64 64" height="512" viewBox="0 0 64 64" width="512" xmlns="http://www.w3.org/2000/svg"><g><path d="m2 53h10l11 9h21v-6h-17l3-3-12-12h-16" fill="#efbe9a"/><path d="m45 21-3-8 5 2 5-2-3 8" fill="#f5b953"/><path d="m60 47v-11c0-7.18-5.82-13-13-13s-13 5.82-13 13v11c-1.105 0-2 .895-2 2s.895 2 2 2h26c1.105 0 2-.895 2-2s-.895-2-2-2z" fill="#f5b953"/><path d="m47 23c-7.18 0-13 5.82-13 13v8.518c2.317 1.564 5.055 2.482 8 2.482 8.284 0 15-7.163 15-16 0-1.308-.163-2.572-.441-3.789-2.376-2.583-5.773-4.211-9.559-4.211z" fill="#f9d18b"/><path d="m29.314 25.553c1.689-2.427 2.686-5.372 2.686-8.553 0-8.284-6.716-15-15-15s-15 6.716-15 15 6.716 15 15 15c3.181 0 6.126-.997 8.553-2.686l6.447 2.686s-1.351-3.241-2.686-6.447z" fill="#f5b953"/><path d="m23 48.757h2v8.485h-2z" fill="#db9b7c" transform="matrix(.707 -.707 .707 .707 -30.447 32.494)"/><path d="m1 38h2v18h-2z" fill="#2b74ca"/><path d="m47 32c1.103 0 2 .897 2 2h2c0-1.859-1.28-3.411-3-3.858v-2.142h-2v2.142c-1.72.447-3 1.999-3 3.858 0 2.206 1.794 4 4 4 1.103 0 2 .897 2 2s-.897 2-2 2-2-.897-2-2h-2c0 1.859 1.28 3.411 3 3.858v2.142h2v-2.142c1.72-.447 3-1.999 3-3.858 0-2.206-1.794-4-4-4-1.103 0-2-.897-2-2s.897-2 2-2z" fill="#4d5d7a"/><path d="m41 20h12v2h-12z" fill="#815643"/><g fill="#fff"><path d="m12 16c2.206 0 4-1.794 4-4s-1.794-4-4-4-4 1.794-4 4 1.794 4 4 4zm0-6c1.103 0 2 .897 2 2s-.897 2-2 2-2-.897-2-2 .897-2 2-2z"/><path d="m26 22c0-2.206-1.794-4-4-4s-4 1.794-4 4 1.794 4 4 4 4-1.794 4-4zm-6 0c0-1.103.897-2 2-2s2 .897 2 2-.897 2-2 2-2-.897-2-2z"/><path d="m5.686 16h22.627v2h-22.627z" transform="matrix(.707 -.707 .707 .707 -7.042 17)"/></g></g><script xmlns=""/></svg>