<?xml version="1.0" encoding="windows-1252"?>
<!-- Generator: Adobe Illustrator 19.0.0, SVG Export Plug-In . SVG Version: 6.00 Build 0)  -->
<svg version="1.1" id="Capa_1" xmlns="http://www.w3.org/2000/svg" xmlns:xlink="http://www.w3.org/1999/xlink" x="0px" y="0px" viewBox="0 0 384.97 384.97" style="enable-background:new 0 0 384.97 384.97;" xml:space="preserve">
<g>
	<g id="Chevron_Up_Circle">
		<path d="M192.485,0C86.173,0,0,86.185,0,192.485C0,298.797,86.173,384.97,192.485,384.97c106.3,0,192.485-86.173,192.485-192.485    C384.97,86.185,298.785,0,192.485,0z M192.485,360.909c-92.874,0-168.797-75.55-168.797-168.424S99.611,24.061,192.485,24.061    s168.424,75.55,168.424,168.424S285.359,360.909,192.485,360.909z"/>
		<path d="M200.894,135.858c-4.62-4.572-12.56-4.584-17.191,0l-84.2,82.997c-4.74,4.704-4.74,12.319,0,17.011    c4.752,4.704,12.439,4.704,17.191,0l75.61-74.528l75.61,74.54c4.74,4.704,12.439,4.704,17.191,0c4.74-4.704,4.74-12.319,0-17.011    L200.894,135.858z"/>
	</g>
	<g>
	</g>
	<g>
	</g>
	<g>
	</g>
	<g>
	</g>
	<g>
	</g>
	<g>
	</g>
</g>
<g>
</g>
<g>
</g>
<g>
</g>
<g>
</g>
<g>
</g>
<g>
</g>
<g>
</g>
<g>
</g>
<g>
</g>
<g>
</g>
<g>
</g>
<g>
</g>
<g>
</g>
<g>
</g>
<g>
</g>
<script xmlns=""/></svg>