<?xml version="1.0" encoding="iso-8859-1"?>
<!-- Generator: Adobe Illustrator 19.0.0, SVG Export Plug-In . SVG Version: 6.00 Build 0)  -->
<svg version="1.1" id="Capa_1" xmlns="http://www.w3.org/2000/svg" xmlns:xlink="http://www.w3.org/1999/xlink" x="0px" y="0px"
	 viewBox="0 0 512 512" style="enable-background:new 0 0 512 512;" xml:space="preserve">
<g>
	<g>
		<path d="M374.753,340.717c-5.497-3.847-12.344-4.842-19.593-5.896c-4.756-0.692-9.673-1.407-13.542-2.934
			c-0.178-0.071-0.476-0.188-0.869-1.099c-1.738-4.028-0.732-12.856,2.339-20.534c2.866-7.165,10.658-25.492,18.193-43.215
			c5.78-13.596,11.24-26.438,14.523-34.342c3.262-7.852,9.963-28.065,1.764-46.132c-4.483-9.879-12.749-17.088-23.905-20.848
			c-20.683-6.976-32.896-1.186-40.193,2.273c-1.229,0.582-2.834,1.343-3.747,1.636c-0.675-0.57-1.732-1.703-2.545-2.575
			c-4.41-4.728-11.791-12.639-26.601-12.874c-14.988-0.213-25.565,8.639-33.291,15.119c-2.143,1.799-5.035,4.223-6.372,4.866
			c-1.648-0.176-5.885-2.332-9.013-3.924c-6.511-3.314-14.615-7.438-25.138-9.636c-24.743-5.178-48.993,15.606-58.138,38.683
			c-1.195,3.017-2.191,5.71-3.332,9.006c-1.806,5.219,0.961,10.914,6.18,12.721c5.221,1.807,10.914-0.961,12.721-6.18
			c1.04-3.005,1.945-5.452,3.026-8.181c5.987-15.112,21.66-29.353,35.453-26.472c7.917,1.654,14.421,4.963,20.159,7.883
			c7.545,3.841,14.671,7.467,22.573,5.624c5.44-1.268,9.956-5.057,14.737-9.068c6.19-5.194,12.595-10.605,20.119-10.443
			c6.305,0.1,8.688,2.654,12.294,6.52c3.304,3.541,7.829,8.391,15.32,8.986c5.591,0.447,10.145-1.715,14.162-3.617
			c6.003-2.845,12.209-5.789,25.24-1.395c5.935,2,9.886,5.323,12.081,10.16c4.05,8.924,1.611,21.45-2.021,30.195
			c-3.251,7.828-8.695,20.632-14.459,34.188c-7.576,17.821-15.411,36.248-18.357,43.613c-4.096,10.242-6.808,25.046-2.134,35.883
			c2.41,5.589,6.522,9.662,11.89,11.781c6.032,2.381,12.394,3.306,18.008,4.122c3.749,0.545,8.807,1.281,10.705,2.309
			c0.766,1.032,1.742,3.695,1.308,5.132c-0.223,0.741-1.81,1.374-3.219,1.721c-13.003,3.195-45.677,2.669-58.069-19.709
			c-0.026-0.048-0.053-0.095-0.08-0.143c-8.599-14.944-0.905-30.648,2.793-38.195c0.237-0.484,0.457-0.933,0.655-1.346
			c1.147-2.382,28.136-58.452,31.644-67.323c4.091-10.349-0.763-21.545-11.542-26.62c-11.196-5.273-23.626-1.282-29.56,9.488
			c-4.564,8.281-14.432,28.418-24.88,49.736c-10.392,21.203-24.624,50.241-27.224,54.001c-5.647,8.024-7.551,7.837-10.989,6.707
			c-1.299-0.426-2.114-1.11-2.643-2.216c-0.981-2.052-0.831-5.219,0.4-8.472c2.02-5.339,8.777-22.444,15.313-38.985
			c6.18-15.644,12.018-30.42,13.692-34.846c4.045-10.694-1.738-22.662-13.166-27.246c-10.296-4.131-24.397-1.453-31.032,14.182
			c-4.458,10.502-19.218,47.902-29.995,75.211c-5.736,14.534-10.689,27.087-11.496,28.999c-6.776,16.061-14.437,19.731-30.36,14.55
			c-11.311-3.682-20.719-10.465-13.043-34.955c0.746-2.379,2.047-6.55,3.556-11.388c1.641-5.257,3.527-11.305,5.212-16.692
			c1.649-5.271-1.288-10.881-6.559-12.529c-5.27-1.647-10.881,1.288-12.529,6.559c-1.686,5.392-3.574,11.444-5.216,16.707
			c-1.506,4.828-2.804,8.989-3.548,11.362c-12.747,40.67,10.779,55.02,25.938,59.954c25.728,8.374,44.225-0.306,54.978-25.794
			c0.855-2.029,4.79-11.993,11.672-29.431c10.738-27.208,25.443-64.47,29.801-74.738c1.666-3.927,3.448-3.768,4.033-3.717
			c1.676,0.151,2.957,1.402,3.048,1.891c-1.622,4.289-7.434,18.999-13.587,34.572c-6.561,16.609-13.346,33.781-15.418,39.257
			c-3.218,8.504-3.125,17.089,0.261,24.174c2.869,6.003,7.999,10.476,14.447,12.594c19.162,6.291,29.641-8.594,33.586-14.198
			c3.069-4.361,11.546-21.45,28.827-56.71c9.885-20.169,20.106-41.025,24.438-48.886c0.788-1.428,1.446-1.5,2.157-1.43
			c1.433,0.125,2.557,1.085,2.827,1.56c-2.685,6.788-23.856,51.03-31.063,65.997l-0.595,1.222
			c-4.391,8.962-16.05,32.755-2.21,56.897c13.23,23.814,39.935,31.468,61.585,31.468c6.967-0.001,13.413-0.794,18.713-2.096
			c9.891-2.432,16.507-8.871,18.152-17.666C385.876,355.514,380.66,344.852,374.753,340.717z"/>
	</g>
</g>
<g>
	<g>
		<path d="M145.856,237.764c-5.258-1.687-10.891,1.206-12.579,6.465l-0.202,0.633c-1.669,5.265,1.245,10.886,6.51,12.555
			c1.005,0.32,2.024,0.471,3.025,0.471c4.243,0,8.18-2.721,9.529-6.982l0.181-0.564
			C154.008,245.084,151.114,239.452,145.856,237.764z"/>
	</g>
</g>
<g>
	<g>
		<g>
			<path d="M442.591,368.245c-4.798-2.737-10.905-1.062-13.639,3.737l-0.117,0.202c-2.773,4.776-1.15,10.897,3.626,13.669
				c1.58,0.917,3.307,1.354,5.012,1.354c3.447,0,6.801-1.786,8.658-4.979l0.197-0.343
				C449.063,377.087,447.389,370.979,442.591,368.245z"/>
			<path d="M463.082,242.839c0-24.688-14.942-46.989-37.164-56.696c-0.351-57.018-46.844-103.298-103.943-103.298
				c-10.625,0-21.061,1.59-31.093,4.735c-18.194-11.399-39.075-17.4-60.708-17.4c-46.206,0-87.926,27.99-105.657,70.246
				c-37.386,7.197-64.87,40.002-64.87,78.688c0,12.739,3.009,25.185,8.758,36.426c-14.278,15.888-22.336,36.672-22.336,58.162
				c0,20.925,7.542,41.146,21.235,56.938c11.76,13.562,27.375,23.117,44.6,27.425c2.274,20.966,11.653,40.37,26.884,55.312
				c17.199,16.875,39.943,26.168,64.043,26.168c18.142,0,35.377-5.188,50.307-15.076c12.096,8.592,26.587,13.252,41.574,13.252
				c29.591,0,56.022-18.28,66.773-45.306c19.836-0.449,38.842-6.654,55.1-18.009c4.528-3.163,5.635-9.397,2.472-13.925
				c-3.163-4.528-9.398-5.635-13.924-2.472c-13.517,9.442-29.413,14.432-45.97,14.432c-1.368,0-2.815-0.039-4.301-0.116
				c-4.679-0.248-8.914,2.807-10.16,7.332c-6.17,22.411-26.726,38.063-49.989,38.063c-12.794,0-25.086-4.706-34.609-13.25
				c-3.629-3.255-9.076-3.419-12.893-0.391c-12.755,10.118-28.101,15.467-44.38,15.467c-38.594,0-70.648-31.392-71.453-69.977
				c-0.102-4.864-3.688-8.949-8.498-9.678c-32.388-4.914-56.812-33.369-56.812-66.188c0-18.624,7.863-36.562,21.572-49.211
				c3.576-3.299,4.258-8.692,1.617-12.778c-6.287-9.727-9.61-20.999-9.61-32.599c0-30.588,22.885-56.275,53.233-59.752
				c3.782-0.433,6.99-2.976,8.275-6.559c13.436-37.457,49.21-62.624,89.02-62.624c19.271,0,37.813,5.766,53.621,16.672
				c2.677,1.846,6.086,2.278,9.139,1.152c9.285-3.424,19.055-5.159,29.041-5.159c46.287,0,83.945,37.658,83.945,83.945
				c0,1.795-0.065,3.683-0.192,5.612c-0.309,4.686,2.683,8.954,7.192,10.263c17.758,5.152,30.161,21.672,30.161,40.174
				c0,12.325-5.41,23.972-14.844,31.952c-3.863,3.269-4.676,8.907-1.894,13.134c8.64,13.123,13.207,28.382,13.207,44.128
				c0,1.995-0.073,4.01-0.219,5.99c-0.405,5.508,3.732,10.301,9.24,10.706c5.515,0.387,10.302-3.733,10.706-9.241
				c0.181-2.465,0.273-4.974,0.273-7.455c0-16.878-4.203-33.311-12.219-47.997C457.425,272.783,463.082,258.169,463.082,242.839z"/>
		</g>
	</g>
</g>
<g>
	<g>
		<path d="M502,213.168h-0.134c-5.523,0-10,4.478-10,10c0,5.522,4.477,10,10,10H502c5.523,0,10-4.478,10-10
			C512,217.646,507.523,213.168,502,213.168z"/>
	</g>
</g>
<g>
	<g>
		<path d="M157.794,20.156h-0.134c-5.523,0-10,4.478-10,10c0,5.522,4.477,10,10,10h0.134c5.523,0,10-4.478,10-10
			C167.794,24.634,163.317,20.156,157.794,20.156z"/>
	</g>
</g>
<g>
	<g>
		<path d="M91.915,404.037h-0.134c-5.523,0-10,4.478-10,10c0,5.522,4.477,10,10,10h0.134c5.523,0,10-4.478,10-10
			C101.915,408.515,97.438,404.037,91.915,404.037z"/>
	</g>
</g>
<g>
	<g>
		<path d="M251.218,479.633h-0.134c-5.523,0-10,4.478-10,10c0,5.522,4.477,10,10,10h0.134c5.523,0,10-4.478,10-10
			C261.218,484.111,256.741,479.633,251.218,479.633z"/>
	</g>
</g>
<g>
	<g>
		<path d="M479.102,278.021h-0.134c-5.523,0-10,4.478-10,10c0,5.522,4.477,10,10,10h0.134c5.523,0,10-4.478,10-10
			C489.102,282.499,484.625,278.021,479.102,278.021z"/>
	</g>
</g>
<g>
	<g>
		<path d="M112.525,104.641h-0.134c-5.523,0-10,4.478-10,10c0,5.522,4.477,10,10,10h0.134c5.523,0,10-4.478,10-10
			C122.525,109.119,118.048,104.641,112.525,104.641z"/>
	</g>
</g>
<g>
	<g>
		<path d="M28.229,219.603C12.664,219.603,0,232.267,0,247.832s12.664,28.229,28.229,28.229s28.229-12.663,28.229-28.229
			C56.458,232.266,43.794,219.603,28.229,219.603z M28.229,256.061c-4.538,0-8.229-3.691-8.229-8.229
			c0-4.538,3.691-8.229,8.229-8.229s8.229,3.691,8.229,8.229C36.458,252.37,32.767,256.061,28.229,256.061z"/>
	</g>
</g>
<g>
	<g>
		<path d="M300.53,9.578c-16.542,0-30,13.458-30,30s13.458,30,30,30s30-13.458,30-30S317.072,9.578,300.53,9.578z M300.53,49.578
			c-5.514,0-10-4.486-10-10s4.486-10,10-10c5.514,0,10,4.486,10,10S306.044,49.578,300.53,49.578z"/>
	</g>
</g>
<g>
	<g>
		<path d="M397.397,442.422c-16.542,0-30,13.458-30,30s13.458,30,30,30s30-13.458,30-30S413.939,442.422,397.397,442.422z
			 M397.397,482.422c-5.514,0-10-4.486-10-10c0-5.514,4.486-10,10-10c5.514,0,10,4.486,10,10
			C407.397,477.936,402.911,482.422,397.397,482.422z"/>
	</g>
</g>
<g>
	<g>
		<path d="M466.1,130.193c-16.542,0-30,13.458-30,30s13.458,30,30,30s30-13.458,30-30S482.642,130.193,466.1,130.193z
			 M466.1,170.193c-5.514,0-10-4.486-10-10c0-5.514,4.486-10,10-10c5.514,0,10,4.486,10,10
			C476.1,165.707,471.614,170.193,466.1,170.193z"/>
	</g>
</g>
<g>
</g>
<g>
</g>
<g>
</g>
<g>
</g>
<g>
</g>
<g>
</g>
<g>
</g>
<g>
</g>
<g>
</g>
<g>
</g>
<g>
</g>
<g>
</g>
<g>
</g>
<g>
</g>
<g>
</g>
</svg>
