<?xml version="1.0" encoding="iso-8859-1"?>
<!-- Generator: Adobe Illustrator 16.0.0, SVG Export Plug-In . SVG Version: 6.00 Build 0)  -->
<!DOCTYPE svg PUBLIC "-//W3C//DTD SVG 1.1//EN" "http://www.w3.org/Graphics/SVG/1.1/DTD/svg11.dtd">
<svg version="1.1" id="Capa_1" xmlns="http://www.w3.org/2000/svg" xmlns:xlink="http://www.w3.org/1999/xlink" x="0px" y="0px"
	 width="97.75px" height="97.75px" viewBox="0 0 97.75 97.75" style="enable-background:new 0 0 97.75 97.75;" xml:space="preserve"
	>
<g>
	<g>
		<path d="M46.774,47.62c0.101-1.275,0.053-2.562,0.07-3.844c-0.115-0.028-0.229-0.054-0.344-0.081
			c-0.582,1.641-1.165,3.283-1.749,4.937C46.548,49.173,46.657,49.145,46.774,47.62z"/>
		<path d="M80.266,52.878c3.944-2.041,5.846-6.327,4.35-10.172C81.5,45.407,81.035,49.146,80.266,52.878z"/>
		<path d="M35.268,47.847c-0.029-1.389-0.059-2.694-0.088-3.998c-0.119-0.03-0.237-0.061-0.357-0.09
			c-0.33,0.848-0.733,1.675-0.972,2.548C33.455,47.758,33.499,47.769,35.268,47.847z"/>
		<path d="M48.875,0C21.883,0,0,21.882,0,48.875S21.883,97.75,48.875,97.75S97.75,75.868,97.75,48.875S75.867,0,48.875,0z
			 M26.512,57.939c-0.687,0.201-0.905-0.064-1.101-0.709c-1.113-3.688-2.283-7.358-3.48-11.188
			c-0.065,0.495-0.147,0.902-0.166,1.313c-0.118,2.233-0.206,4.468-0.335,6.7c-0.029,0.526-0.086,1.096-0.307,1.557
			c-0.162,0.332-0.592,0.634-0.961,0.746c-0.533,0.162-1.148,0.055-1.681,0.215c-1.373,0.408-2.108-0.291-2.735-1.362
			c-0.767-1.315-1.588-2.597-2.387-3.894c-0.056,0.004-0.111,0.009-0.166,0.014c0.153,1.188,0.286,2.38,0.477,3.562
			c0.107,0.686-0.166,1.088-0.763,1.34c-0.133,0.054-0.253,0.129-0.384,0.18c-2.647,1.014-3.161,0.656-3.584-2.112
			c-0.61-3.993-0.459-7.997-0.318-12.003c0.008-0.23,0.267-0.554,0.488-0.654c0.448-0.201,0.944-0.317,1.433-0.396
			c1.96-0.324,2.471-0.064,3.383,1.673c0.905,1.729,1.799,3.463,2.704,5.195c0.123,0.232,0.268,0.455,0.451,0.761
			c0.406-1.919,0.686-3.734,1.186-5.488c0.474-1.661,1.143-3.27,1.81-4.867c0.121-0.289,0.646-0.573,0.985-0.575
			c0.955-0.008,1.968-0.039,2.838,0.275c0.531,0.191,1.04,0.941,1.215,1.539c0.602,2.076,1.072,4.19,1.56,6.298
			c0.852,3.689,1.675,7.383,2.535,11.18C28.425,57.439,27.462,57.66,26.512,57.939z M31.594,56.562
			c-1.814-1.16-2.542-2.637-2.51-4.674c0.037-2.397-0.035-4.792,0.631-7.146c0.533-1.894,1.839-3.092,3.229-4.347
			c1.387-1.247,2.732-0.773,4.24-0.513c1.671,0.289,1.979,1.392,2.054,2.722c0.13,2.326,0.589,4.645,0.027,6.985
			c-0.142,0.593-0.318,0.894-0.937,0.859c-1.618-0.089-3.234-0.171-4.972-0.259c-0.209,1.561-0.285,3.117,0.622,4.516
			c0.88,1.357,2.047,1.629,3.58,0.931c1.343-0.61,2.777-0.295,3.876,0.853C38.926,58.279,34.1,58.163,31.594,56.562z M47.38,57.35
			c-0.76-0.164-1.562-0.154-2.313-0.345c-2.746-0.7-4.38-3.088-4.477-5.944c-0.093-2.761,0.582-5.357,1.706-7.75
			c0.801-1.707,2.289-3.105,3.568-4.557c0.231-0.265,0.965-0.259,1.402-0.14c0.949,0.258,1.888,0.607,2.763,1.051
			c0.326,0.167,0.672,0.721,0.652,1.081c-0.076,1.51-0.299,3.011-0.445,4.519c-0.168,1.79-0.314,3.583-0.478,5.482
			c-1.637,1.031-3.43,0.395-5.239,0.146c-0.579,1.767,0.253,3.01,1.274,4.185c0.843,0.971,1.934,1.015,3.027,0.63
			c0.658-0.232,1.215-0.734,1.851-1.041c0.279-0.133,0.667-0.17,0.965-0.094c0.715,0.179,1.154,0.646,1.164,1.527
			C51.105,56.967,49.412,57.789,47.38,57.35z M63.336,49.378c-1.243,0.173-2.486,0.354-3.734,0.513
			c-0.438,0.058-0.81,0.026-0.758,0.709c0.086,1.194,0.023,2.4,0.055,3.602c0.028,1.204,0.094,2.404,0.148,3.718
			c-0.925,0.153-1.811,0.3-2.835,0.47c-0.077-1.396-0.137-2.725-0.228-4.05c-0.092-1.336-0.211-2.672-0.328-4.119
			c-0.909-0.052-1.75-0.125-2.592-0.14c-0.789-0.016-1.348-0.255-1.274-1.161c0.063-0.896,0.64-1.189,1.468-1.14
			c0.691,0.041,1.389,0.065,2.166,0.1c-0.291-2.794-0.619-5.426-0.824-8.067c-0.146-1.908-0.219-3.829-0.172-5.741
			c0.049-2.028,0.92-2.503,2.762-1.676c1.891,0.849,1.793,0.95,1.75,2.976c-0.067,3.113,0.121,6.231,0.16,9.348
			c0.008,0.684-0.199,1.367-0.23,2.055c-0.014,0.264,0.184,0.538,0.287,0.808c0.144-0.216,0.395-0.423,0.414-0.65
			c0.058-0.658,0.488-0.906,0.918-0.576c1.06,0.812,2.021,1.755,3.02,2.648C63.452,49.126,63.395,49.252,63.336,49.378z
			 M71.471,56.131c-0.385,0.409-0.873,0.854-1.391,0.975c-0.922,0.215-1.898,0.275-2.85,0.254c-1.104-0.027-1.812-0.811-2.021-1.771
			c-0.556-2.515-0.979-5.057-1.403-7.599c-0.123-0.729-0.097-1.488-0.068-2.23c0.033-1.054,0.529-1.381,1.535-1.057
			c0.301,0.098,0.586,0.255,0.879,0.384c1.957,0.861,1.914,0.922,1.935,3.003c0.021,2.127,0.216,4.25,0.351,6.375
			c0.016,0.234,0.137,0.461,0.246,0.816c2.282-1.948,2.941-4.38,2.933-7.071c-0.005-0.627-0.224-1.26-0.187-1.879
			c0.027-0.45,0.228-0.966,0.525-1.288c0.179-0.191,0.727-0.15,1.062-0.057c0.508,0.139,0.972,0.422,1.459,0.633
			c1.129,0.484,1.381,1.318,1.336,2.521C75.729,50.59,74.502,52.424,73,54.18C72.463,54.807,72.034,55.53,71.471,56.131z
			 M86.324,52.443c-1.375,1.162-2.748,2.334-4.196,3.398c-0.545,0.399-1.304,0.506-1.981,0.753
			c-0.443,1.935-0.185,4.722,0.879,9.075c-1.104,0.032-2.188,0.104-3.272,0.059c-0.183-0.009-0.452-0.506-0.496-0.805
			c-0.401-2.621-0.746-5.249-1.153-7.867c-0.066-0.435-0.283-0.932-0.595-1.226c-0.923-0.872-0.85-1.534,0.285-2.125
			c0.212-0.11,0.353-0.476,0.403-0.746c0.476-2.354,0.795-4.75,1.41-7.067c0.677-2.546,2.154-4.639,4.568-5.843
			c0.646-0.323,1.565-0.261,2.324-0.15c0.714,0.106,1.369,0.602,2.084,0.77c1.943,0.451,2.407,2,2.584,3.599
			C89.516,47.409,88.884,50.288,86.324,52.443z"/>
	</g>
</g>
<g>
</g>
<g>
</g>
<g>
</g>
<g>
</g>
<g>
</g>
<g>
</g>
<g>
</g>
<g>
</g>
<g>
</g>
<g>
</g>
<g>
</g>
<g>
</g>
<g>
</g>
<g>
</g>
<g>
</g>
</svg>
