<?xml version="1.0" encoding="iso-8859-1"?>
<!-- Generator: Adobe Illustrator 19.0.0, SVG Export Plug-In . SVG Version: 6.00 Build 0)  -->
<svg version="1.1" id="Capa_1" xmlns="http://www.w3.org/2000/svg" xmlns:xlink="http://www.w3.org/1999/xlink" x="0px" y="0px"
	 viewBox="0 0 512 512" style="enable-background:new 0 0 512 512;" xml:space="preserve">
<g>
	<g>
		<path d="M422,96c-5.52,0-10,4.48-10,10s4.48,10,10,10c5.52,0,10-4.48,10-10S427.52,96,422,96z"/>
	</g>
</g>
<g>
	<g>
		<path d="M422,296c-5.52,0-10,4.48-10,10c0,5.52,4.48,10,10,10c5.52,0,10-4.48,10-10C432,300.48,427.52,296,422,296z"/>
	</g>
</g>
<g>
	<g>
		<path d="M70,196c-5.52,0-10,4.48-10,10s4.48,10,10,10s10-4.48,10-10S75.52,196,70,196z"/>
	</g>
</g>
<g>
	<g>
		<path d="M508.401,298.318l-60-50C446.604,246.82,444.34,246,442,246H286v-80h156c2.34,0,4.604-0.82,6.401-2.318l60-50
			c2.28-1.9,3.599-4.714,3.599-7.682s-1.318-5.782-3.599-7.682l-60-50C446.604,46.82,444.34,46,442,46H286V30
			c0-8.01-3.121-15.543-8.79-21.212C271.542,3.121,264.01,0,256,0c-16.542,0-30,13.458-30,30v116H70
			c-2.339,0-4.604,0.82-6.402,2.318l-60,50C1.318,200.218,0,203.032,0,206s1.318,5.782,3.598,7.682l60,50
			C65.396,265.18,67.661,266,70,266h156v166h-55.58c-12.941,0-24.381,8.247-28.467,20.518L128.792,492H96c-5.523,0-10,4.477-10,10
			s4.477,10,10,10c2.561,0,326.153,0,328,0c5.522,0,10-4.477,10-10s-4.478-10-10-10h-40.793l-13.159-39.478
			C365.962,440.247,354.521,432,341.58,432H286v-66h156c2.34,0,4.604-0.82,6.401-2.318l60-50c2.28-1.9,3.599-4.714,3.599-7.682
			S510.682,300.218,508.401,298.318z M286,66h152.38l48,40l-48,40H286V66z M246,30c0-5.514,4.486-10,10-10
			c2.668,0,5.179,1.041,7.068,2.931c1.891,1.89,2.932,4.4,2.932,7.069v402h-20V30z M73.621,246l-48-40l48-40H226v80H73.621z
			 M341.58,452c4.316,0,8.13,2.748,9.493,6.843L362.126,492H149.874l11.054-33.161c1.362-4.09,5.177-6.839,9.492-6.839H341.58z
			 M438.38,346H286v-80h152.38l48,40L438.38,346z"/>
	</g>
</g>
<g>
	<g>
		<path d="M382,96h-66c-5.522,0-10,4.477-10,10s4.478,10,10,10h66c5.522,0,10-4.477,10-10S387.522,96,382,96z"/>
	</g>
</g>
<g>
	<g>
		<path d="M382,296h-66c-5.522,0-10,4.477-10,10s4.478,10,10,10h66c5.522,0,10-4.477,10-10S387.522,296,382,296z"/>
	</g>
</g>
<g>
	<g>
		<path d="M196,196h-86c-5.523,0-10,4.477-10,10s4.477,10,10,10h86c5.523,0,10-4.477,10-10S201.523,196,196,196z"/>
	</g>
</g>
<g>
</g>
<g>
</g>
<g>
</g>
<g>
</g>
<g>
</g>
<g>
</g>
<g>
</g>
<g>
</g>
<g>
</g>
<g>
</g>
<g>
</g>
<g>
</g>
<g>
</g>
<g>
</g>
<g>
</g>
</svg>
